<svg width="390" height="844" viewBox="0 0 390 844" fill="none" xmlns="http://www.w3.org/2000/svg">
<g clip-path="url(#clip0_2_9)">
<rect width="390" height="844" fill="#DEE6F7"/>
<g clip-path="url(#clip1_2_9)">
<path opacity="0.1" d="M77.0884 302.892C90.7242 302.892 101.778 301.173 101.778 299.053C101.778 296.933 90.7242 295.214 77.0884 295.214C63.4526 295.214 52.3986 296.933 52.3986 299.053C52.3986 301.173 63.4526 302.892 77.0884 302.892Z" fill="#7A96EC"/>
<path opacity="0.1" d="M211.299 303C228.314 303 242.108 301.281 242.108 299.161C242.108 297.041 228.314 295.322 211.299 295.322C194.283 295.322 180.49 297.041 180.49 299.161C180.49 301.281 194.283 303 211.299 303Z" fill="#7A96EC"/>
<path opacity="0.1" d="M-12.4932 193.958H13.2228V227.889H-10.6105C-10.6739 228.237 -10.7347 228.588 -10.8006 228.939H13.2228V256.304C13.1798 256.291 13.1417 256.277 13.1012 256.262C12.4221 256.002 11.7481 255.727 11.0741 255.433L10.6434 255.244C9.96768 254.935 9.29199 254.608 8.6163 254.263C8.38065 254.143 8.145 254.018 7.91189 253.89C4.16074 251.856 0.753022 249.278 -2.19308 246.247C-2.27923 246.166 -2.36032 246.08 -2.44647 246.001C-2.85695 245.57 -3.25983 245.133 -3.65004 244.687L-4.0808 244.196C-4.54196 243.649 -4.98792 243.087 -5.4212 242.518C-5.48455 242.435 -5.54536 242.352 -5.61124 242.273C-7.37341 239.908 -8.83657 237.347 -9.96945 234.644C-10.0049 234.564 -10.0353 234.475 -10.0683 234.399C-10.4163 233.532 -10.7245 232.658 -10.9931 231.775C-11.1097 231.404 -11.2212 231.039 -11.3175 230.654C-11.3529 230.541 -11.3833 230.43 -11.4112 230.32C-12.8504 224.882 -13.0202 219.233 -13.0202 213.623C-13.0202 212.968 -13.0202 212.311 -13.0202 211.661C-13.0202 209.392 -12.9923 207.108 -12.9518 204.827C-12.9518 204.236 -12.9265 203.647 -12.9138 203.053C-12.8783 201.547 -12.8276 200.041 -12.7618 198.535C-12.7465 198.116 -12.7263 197.699 -12.7035 197.282C-12.7035 197.041 -12.6908 196.801 -12.6655 196.56C-12.6047 195.687 -12.554 194.821 -12.4932 193.958Z" fill="#7A96EC"/>
<path opacity="0.1" d="M13.2228 156.178H-0.883087C1.4099 152.704 3.91527 149.365 6.61963 146.18C8.71511 143.688 10.9272 141.259 13.2228 138.919V156.178Z" fill="#7A96EC"/>
<path opacity="0.1" d="M13.2229 157.228V192.908H-12.412C-12.412 192.805 -12.3943 192.699 -12.3867 192.596C-12.3639 192.314 -12.3411 192.032 -12.3158 191.753C-12.2879 191.424 -12.2575 191.093 -12.2245 190.771C-12.1916 190.45 -12.1561 190.058 -12.1181 189.702C-12.0801 189.346 -12.0446 188.986 -12.0016 188.63C-11.9585 188.274 -11.9205 187.919 -11.8749 187.566C-11.8293 187.212 -11.7887 186.854 -11.7406 186.501C-11.7026 186.207 -11.662 185.915 -11.6215 185.62C-11.5632 185.206 -11.5024 184.789 -11.4365 184.377C-11.4365 184.315 -11.4188 184.252 -11.4086 184.193C-10.9462 181.176 -10.316 178.186 -9.52093 175.235C-8.68867 172.139 -7.6259 169.106 -6.34096 166.159C-4.9753 163.076 -3.37632 160.095 -1.55706 157.24L13.2229 157.228Z" fill="#7A96EC"/>
<path opacity="0.1" d="M19.3623 193.955V227.889H74.2885V193.955H19.3623ZM19.3623 228.936V258.077C19.6765 258.141 19.9882 258.202 20.2973 258.254C20.7179 258.332 21.136 258.403 21.5642 258.465C21.6453 258.477 21.7289 258.489 21.8176 258.497C21.9849 258.523 22.1572 258.546 22.3244 258.568C22.7476 258.624 23.1682 258.671 23.5913 258.707C23.7915 258.727 23.9942 258.744 24.1969 258.759L24.6859 258.796C24.952 258.815 25.2155 258.83 25.4765 258.837C25.6387 258.837 25.8008 258.852 25.9681 258.857C26.0948 258.857 26.2215 258.857 26.3532 258.857C26.485 258.857 26.6725 258.857 26.8321 258.857C27.05 258.857 27.2679 258.857 27.4833 258.857H27.7747C27.9926 258.857 28.2105 258.857 28.4259 258.837H28.4411C28.5906 258.837 28.7426 258.837 28.8947 258.818C28.9369 258.82 28.9792 258.82 29.0214 258.818C29.148 258.818 29.2747 258.818 29.3964 258.801H29.485L30.3339 258.737C30.6126 258.712 30.8939 258.68 31.1777 258.651L31.7554 258.585C34.1057 258.266 36.4299 257.787 38.7108 257.152C43.8342 255.769 48.8462 253.834 53.9671 252.416C60.588 250.588 67.9032 249.691 74.3012 251.925V228.936H19.3623ZM74.2885 156.178V111.002C68.275 110.939 62.2779 111.62 56.4426 113.028C42.5344 116.411 30.0552 123.748 19.3623 133.118V156.175H22.1192V157.223H19.3623V192.908H74.2885V157.225H33.4378V156.178H74.2885ZM144.838 140.918C141.397 140.8 137.977 139.746 134.883 138.117C128.966 135.002 124.241 130.192 118.96 126.132C107.989 117.677 94.3819 112.575 80.4229 111.309V156.178H158.833L159.028 155.979L144.838 140.918ZM151.981 139.692L159.555 147.737V137.582C157.019 137.886 154.796 138.61 151.991 139.682L151.981 139.692ZM159.555 265.313V228.936H143.417C143.374 228.782 143.331 228.625 143.28 228.468C143.328 228.625 143.369 228.782 143.414 228.936H80.4331V255.244C81.0311 255.673 81.6214 256.125 82.2068 256.583C82.8377 257.074 83.461 257.591 84.0869 258.099L84.7178 258.604C85.0193 258.85 85.3234 259.095 85.63 259.326C86.2381 259.803 86.8521 260.274 87.4721 260.738C87.7787 260.984 88.0929 261.205 88.4045 261.435C93.3524 265.097 98.5719 268.402 104.021 271.323C105.242 271.977 106.474 272.616 107.718 273.239C108.546 273.648 109.38 274.055 110.216 274.45C111.473 275.044 112.74 275.616 114.017 276.167C125.791 281.284 138.24 284.795 151.011 286.6C153.847 287.005 156.694 287.324 159.552 287.556V265.311H159.806L159.555 265.313ZM80.4331 157.225V192.908H159.565V157.225H80.4331ZM80.4331 193.955V227.889H159.565V193.955H80.4331ZM165.707 137.538V148.866L175.374 138.598C172.171 138.097 168.949 137.74 165.707 137.526V137.538ZM165.707 193.968V227.889H242.673V193.955L165.707 193.968ZM242.391 268.006L242.662 228.936H165.707V287.946C170.665 288.148 175.63 288.091 180.581 287.775V287.775H180.667C183.032 287.631 185.386 287.421 187.729 287.147H187.782C200.282 285.738 212.504 282.581 224.067 277.774M257.513 199.543C257.225 198.883 256.923 198.228 256.616 197.581C256.044 196.354 255.438 195.162 254.815 193.97H248.81V227.889H263.992C263.985 218.283 261.474 208.472 257.521 199.531L257.513 199.543ZM248.81 228.949V262.554C253.087 258.585 256.7 254.044 259.302 248.854C262.432 242.604 263.863 235.836 263.98 228.944L248.81 228.949ZM248.81 184.08V192.91H254.252C252.606 189.87 250.791 186.919 248.817 184.068L248.81 184.08ZM196.612 144.195C196.212 144.048 195.812 143.898 195.409 143.754C191.16 142.235 186.818 140.972 182.408 139.971L167.615 155.687L167.331 155.979L167.521 156.18H220.17C212.837 151.294 204.932 147.267 196.62 144.183L196.612 144.195ZM221.713 157.237H166.787L165.707 158.194V192.908H175.168H175.184H242.683V176.093C236.577 168.944 229.529 162.601 221.72 157.225L221.713 157.237Z" fill="#7A96EC"/>
<path opacity="0.1" d="M13.2229 175.225V192.908H-12.412C-12.412 192.805 -12.3943 192.699 -12.3867 192.596C-12.3639 192.314 -12.3411 192.032 -12.3158 191.753C-12.2879 191.424 -12.2575 191.093 -12.2245 190.771C-12.1916 190.45 -12.1561 190.058 -12.1181 189.702C-12.0801 189.346 -12.0446 188.986 -12.0016 188.63C-11.9585 188.274 -11.9205 187.919 -11.8749 187.566C-11.8293 187.212 -11.7887 186.854 -11.7406 186.501C-11.7026 186.207 -11.662 185.915 -11.6215 185.62C-11.5632 185.206 -11.5024 184.789 -11.4365 184.377C-11.4365 184.315 -11.4188 184.252 -11.4086 184.193C-10.9462 181.176 -10.316 178.186 -9.52093 175.235L13.2229 175.225Z" fill="#7A96EC"/>
<path opacity="0.1" d="M-12.4932 193.958H13.2228V227.889H-10.6105C-10.6739 228.237 -10.7347 228.588 -10.8006 228.939H13.2228V256.304C13.1798 256.291 13.1417 256.277 13.1012 256.262C12.4221 256.002 11.7481 255.727 11.0741 255.433L10.6434 255.244C9.96768 254.935 9.29199 254.608 8.6163 254.263C8.38065 254.143 8.145 254.018 7.91189 253.89C4.16074 251.856 0.753022 249.278 -2.19308 246.247C-2.27923 246.166 -2.36032 246.08 -2.44647 246.001C-2.85695 245.57 -3.25983 245.133 -3.65004 244.687L-4.0808 244.196C-4.54196 243.649 -4.98792 243.087 -5.4212 242.518C-5.48455 242.435 -5.54536 242.352 -5.61124 242.273C-7.37341 239.908 -8.83657 237.347 -9.96945 234.644C-10.0049 234.564 -10.0353 234.475 -10.0683 234.399C-10.4163 233.532 -10.7245 232.658 -10.9931 231.775C-11.1097 231.404 -11.2212 231.039 -11.3175 230.654C-11.3529 230.541 -11.3833 230.43 -11.4112 230.32C-12.8504 224.882 -13.0202 219.233 -13.0202 213.623C-13.0202 212.968 -13.0202 212.311 -13.0202 211.661C-13.0202 209.392 -12.9923 207.108 -12.9518 204.827C-12.9518 204.236 -12.9265 203.647 -12.9138 203.053C-12.8783 201.547 -12.8276 200.041 -12.7618 198.535C-12.7465 198.116 -12.7263 197.699 -12.7035 197.282C-12.7035 197.041 -12.6908 196.801 -12.6655 196.56C-12.6047 195.687 -12.554 194.821 -12.4932 193.958Z" fill="#7A96EC"/>
<path opacity="0.1" d="M38.6981 162.335V192.908H19.3623V162.335H22.1192V151.983H33.4353V162.335H38.6981Z" fill="#7A96EC"/>
<path opacity="0.1" d="M38.6981 193.955H19.3649V227.887H38.6981V193.955Z" fill="#7A96EC"/>
<path opacity="0.1" d="M19.3623 228.939H38.6981V257.148C36.4173 257.782 34.093 258.26 31.7427 258.578L31.165 258.646C30.8812 258.678 30.5999 258.705 30.3212 258.732C30.0425 258.759 29.7536 258.779 29.4724 258.796H29.3837C29.2621 258.796 29.1303 258.811 29.0112 258.813H28.882C28.73 258.813 28.5779 258.828 28.4259 258.833C28.2105 258.845 27.9951 258.847 27.7747 258.85C27.6809 258.85 27.5923 258.85 27.4985 258.85C27.2806 258.85 27.0652 258.85 26.8473 258.85H26.3684C26.2392 258.85 26.115 258.85 25.9807 258.85L25.4917 258.833C25.2383 258.833 24.9647 258.806 24.7011 258.789L24.2146 258.754L23.6091 258.7C23.1834 258.663 22.7602 258.617 22.3421 258.56L21.8354 258.492L21.582 258.457C21.1588 258.394 20.7407 258.325 20.3151 258.246C20.0034 258.195 19.6943 258.131 19.3801 258.07L19.3623 228.939Z" fill="#7A96EC"/>
<path opacity="0.1" d="M159.565 158.724H143.622V192.906H159.565V158.724Z" fill="#7A96EC"/>
<path opacity="0.1" d="M159.568 193.955V227.889H80.433V213.253H122.584V221.887H143.622V193.955H159.568Z" fill="#7A96EC"/>
<path opacity="0.1" d="M159.818 265.321H159.565V287.581C156.71 287.347 153.864 287.029 151.026 286.627C138.249 284.816 125.794 281.298 114.017 276.172C110.616 274.691 107.285 273.074 104.023 271.321C98.5745 268.398 93.3543 265.094 88.4045 261.433C87.1613 260.51 85.9341 259.567 84.7229 258.602C83.8842 257.932 83.0505 257.246 82.2068 256.578C81.6214 256.12 81.0311 255.668 80.4331 255.237V228.939H143.412C143.369 228.782 143.326 228.625 143.28 228.47C143.328 228.625 143.374 228.782 143.417 228.939H159.565V265.306C159.651 265.308 159.735 265.316 159.818 265.321Z" fill="#7A96EC"/>
<path opacity="0.1" d="M201.145 156.178H190.757V153.053H195.414V143.744C195.818 143.886 196.22 144.033 196.62 144.183V153.053H201.145V156.178Z" fill="#7A96EC"/>
<path opacity="0.1" d="M226.175 192.908H175.174C175.174 192.908 175.174 192.908 175.191 192.92L175.168 192.908H165.707V158.727H168.388V183.992H180.639V169.029H190.759V157.228H201.148V169.039H211.268V184.001H226.175V192.908Z" fill="#7A96EC"/>
<path opacity="0.1" d="M165.707 193.955V227.889H226.175V193.955H165.707ZM242.589 267.832L242.673 240.973H226.175V228.954H165.707V287.946C170.665 288.148 175.63 288.091 180.581 287.775V287.775H180.667C183.032 287.631 185.386 287.421 187.729 287.147H187.782C200.282 285.738 212.504 282.581 224.067 277.774" fill="#7A96EC"/>
<path opacity="0.1" d="M249.884 228.939H263.99C263.866 235.829 262.437 242.597 259.31 248.847C256.708 254.04 253.092 258.58 248.82 262.546V240.961H249.884V228.939Z" fill="#7A96EC"/>
<path opacity="0.1" d="M263.997 227.889H249.884V199.531H257.521C261.474 208.472 263.985 218.283 263.997 227.889Z" fill="#7A96EC"/>
<path opacity="0.1" d="M159.568 168.227H151.026V178.943H159.568V168.227Z" fill="#7A96EC"/>
<path opacity="0.1" d="M159.568 190.44H151.026V192.908H159.568V190.44Z" fill="#7A96EC"/>
<path opacity="0.1" d="M159.568 193.955H151.026V201.155H159.568V193.955Z" fill="#7A96EC"/>
<path opacity="0.1" d="M159.568 212.654H151.026V223.371H159.568V212.654Z" fill="#7A96EC"/>
<path opacity="0.1" d="M159.568 234.868H151.026V245.584H159.568V234.868Z" fill="#7A96EC"/>
<path opacity="0.1" d="M159.565 265.306C159.651 265.306 159.735 265.306 159.818 265.321H159.565V267.81H151.026V257.081H159.565V265.306Z" fill="#7A96EC"/>
<path opacity="0.1" d="M159.565 279.29V287.569C156.71 287.335 153.864 287.017 151.026 286.614V279.29H159.565Z" fill="#7A96EC"/>
<path opacity="0.1" d="M117.039 227.102H80.433V227.889H117.039V227.102Z" fill="#7A96EC"/>
<path opacity="0.1" d="M117.039 228.936H80.433V231.954H117.039V228.936Z" fill="#7A96EC"/>
<path opacity="0.1" d="M117.039 241.844H80.433V246.696H117.039V241.844Z" fill="#7A96EC"/>
<path opacity="0.1" d="M117.037 256.586V261.438H88.4045C87.1613 260.519 85.9332 259.575 84.7203 258.607C83.8816 257.937 83.0505 257.251 82.2042 256.586H117.037Z" fill="#7A96EC"/>
<path opacity="0.1" d="M117.037 271.325V276.172H114.014C110.617 274.689 107.287 273.071 104.023 271.318L117.037 271.325Z" fill="#7A96EC"/>
<path opacity="0.1" d="M187.79 197.245H180.583V204.221H187.79V197.245Z" fill="#7A96EC"/>
<path opacity="0.1" d="M31.7605 164.741H24.5542V171.717H31.7605V164.741Z" fill="#7A96EC"/>
<path opacity="0.1" d="M31.7605 180.945H24.5542V187.921H31.7605V180.945Z" fill="#7A96EC"/>
<path opacity="0.1" d="M31.7605 197.149H24.5542V204.125H31.7605V197.149Z" fill="#7A96EC"/>
<path opacity="0.1" d="M31.7605 213.351H24.5542V220.327H31.7605V213.351Z" fill="#7A96EC"/>
<path opacity="0.1" d="M31.7605 229.555H24.5542V236.531H31.7605V229.555Z" fill="#7A96EC"/>
<path opacity="0.1" d="M31.7605 245.759H24.5542V252.735H31.7605V245.759Z" fill="#7A96EC"/>
<path opacity="0.1" d="M215.3 197.245H208.093V204.221H215.3V197.245Z" fill="#7A96EC"/>
<path opacity="0.1" d="M187.79 214.452H180.583V221.428H187.79V214.452Z" fill="#7A96EC"/>
<path opacity="0.1" d="M215.3 214.452H208.093V221.428H215.3V214.452Z" fill="#7A96EC"/>
<path opacity="0.1" d="M187.79 231.657H180.583V238.633H187.79V231.657Z" fill="#7A96EC"/>
<path opacity="0.1" d="M215.3 231.657H208.093V238.633H215.3V231.657Z" fill="#7A96EC"/>
<path opacity="0.1" d="M187.79 248.864H180.583V255.84H187.79V248.864Z" fill="#7A96EC"/>
<path opacity="0.1" d="M215.3 248.864H208.093V255.84H215.3V248.864Z" fill="#7A96EC"/>
<path opacity="0.1" d="M187.79 266.071H180.583V273.047H187.79V266.071Z" fill="#7A96EC"/>
<path opacity="0.1" d="M215.3 266.071H208.093V273.047H215.3V266.071Z" fill="#7A96EC"/>
<path opacity="0.1" d="M180.583 287.775V283.276H187.787V287.135L180.583 287.775Z" fill="#7A96EC"/>
<path opacity="0.1" d="M-11.4391 184.188V188.179H13.2228V184.188H-11.4391ZM-8.98126 187.929H-10.9931V184.433H-8.96605L-8.98126 187.929ZM-6.52596 187.929H-8.55304V184.433H-6.52596V187.929ZM-4.07573 187.929H-6.10281V184.433H-4.07573V187.929ZM-1.62044 187.929H-3.64498V184.433H-1.6179L-1.62044 187.929ZM0.832323 187.929H-1.19475V184.433H0.832323V187.929ZM3.28762 187.929H1.26054V184.433H3.28762V187.929ZM5.74292 187.929H3.71584V184.433H5.74292V187.929ZM8.19568 187.929H6.1686V184.433H8.19568V187.929ZM10.6484 187.929H8.62136V184.433H10.6484V187.929ZM13.1012 187.929H11.0741V184.433H13.1012V187.929Z" fill="#7A96EC"/>
<path opacity="0.1" d="M-11.4391 195.8V199.791H13.2228V195.8H-11.4391ZM-8.98126 199.538H-10.9931V196.053H-8.96605L-8.98126 199.538ZM-6.52596 199.538H-8.55304V196.053H-6.52596V199.538ZM-4.07573 199.538H-6.10281V196.053H-4.07573V199.538ZM-1.62044 199.538H-3.64498V196.053H-1.6179L-1.62044 199.538ZM0.832323 199.538H-1.19475V196.053H0.832323V199.538ZM3.28762 199.538H1.26054V196.053H3.28762V199.538ZM5.74292 199.538H3.71584V196.053H5.74292V199.538ZM8.19568 199.538H6.1686V196.053H8.19568V199.538ZM10.6484 199.538H8.62136V196.053H10.6484V199.538ZM13.1012 199.538H11.0741V196.053H13.1012V199.538Z" fill="#7A96EC"/>
<path opacity="0.1" d="M-11.4391 207.417V211.415H13.2228V207.417H-11.4391ZM-8.98126 211.155H-10.9931V207.667H-8.96605L-8.98126 211.155ZM-6.52596 211.155H-8.55304V207.667H-6.52596V211.155ZM-4.07573 211.155H-6.10281V207.667H-4.07573V211.155ZM-1.62044 211.155H-3.64498V207.667H-1.6179L-1.62044 211.155ZM0.832323 211.155H-1.19475V207.667H0.832323V211.155ZM3.28762 211.155H1.26054V207.667H3.28762V211.155ZM5.74292 211.155H3.71584V207.667H5.74292V211.155ZM8.19568 211.155H6.1686V207.667H8.19568V211.155ZM10.6484 211.155H8.62136V207.667H10.6484V211.155ZM13.1012 211.155H11.0741V207.667H13.1012V211.155Z" fill="#7A96EC"/>
<path opacity="0.1" d="M-11.4391 219.034V223.02H13.2228V219.034H-11.4391ZM-8.98126 222.772H-10.9931V219.282H-8.96605L-8.98126 222.772ZM-6.52596 222.772H-8.55304V219.282H-6.52596V222.772ZM-4.07573 222.772H-6.10281V219.282H-4.07573V222.772ZM-1.62044 222.772H-3.64498V219.282H-1.6179L-1.62044 222.772ZM0.832323 222.772H-1.19475V219.282H0.832323V222.772ZM3.28762 222.772H1.26054V219.282H3.28762V222.772ZM5.74292 222.772H3.71584V219.282H5.74292V222.772ZM8.19568 222.772H6.1686V219.282H8.19568V222.772ZM10.6484 222.772H8.62136V219.282H10.6484V222.772ZM13.1012 222.772H11.0741V219.282H13.1012V222.772Z" fill="#7A96EC"/>
<path opacity="0.1" d="M-11.3326 230.649C-11.2338 231.024 -11.1223 231.399 -11.0058 231.77V230.899H-8.9787V234.387H-10.0632C-10.0302 234.468 -9.99731 234.556 -9.96437 234.632H13.2229V230.649H-11.3326ZM-6.51834 234.387H-8.54541V230.899H-6.51834V234.387ZM-4.06811 234.387H-6.09518V230.899H-4.06811V234.387ZM-1.61281 234.387H-3.64496V230.899H-1.61788L-1.61281 234.387ZM0.839948 234.387H-1.18713V230.899H0.839948V234.387ZM3.29524 234.387H1.26817V230.899H3.29524V234.387ZM5.75054 234.387H3.72346V230.899H5.75054V234.387ZM8.2033 234.387H6.17623V230.899H8.2033V234.387ZM10.6561 234.387H8.62899V230.899H10.6561V234.387ZM13.1088 234.387H11.0817V230.899H13.1088V234.387Z" fill="#7A96EC"/>
<path opacity="0.1" d="M-5.60617 242.266C-5.54282 242.344 -5.48201 242.432 -5.41613 242.511H-4.07573V244.186C-3.9313 244.353 -3.7894 244.52 -3.64244 244.677V242.501H-1.61537V246.001H-2.43633C-2.35525 246.082 -2.2767 246.168 -2.18295 246.247H13.2304V242.266H-5.60617ZM0.832328 246.001H-1.19475V242.516H0.832328V246.001ZM3.28762 246.001H1.26055V242.516H3.28762V246.001ZM5.74292 246.001H3.71584V242.516H5.74292V246.001ZM8.19568 246.001H6.1686V242.516H8.19568V246.001ZM10.6484 246.001H8.62137V242.516H10.6484V246.001ZM13.1012 246.001H11.0741V242.516H13.1012V246.001Z" fill="#7A96EC"/>
<path opacity="0.1" d="M7.92203 253.88C8.15261 254.008 8.38825 254.126 8.62644 254.253V254.13H10.6535V255.234L11.0843 255.428V254.13H13.1113V256.252C13.1502 256.271 13.191 256.286 13.233 256.296V253.88H7.92203Z" fill="#7A96EC"/>
<path opacity="0.1" d="M175.174 192.908H175.189H175.174ZM159.565 265.304H159.818H159.565ZM143.28 228.468C143.328 228.625 143.369 228.782 143.414 228.936C143.374 228.782 143.331 228.625 143.28 228.468ZM175.174 192.901H175.189H175.174ZM22.1293 156.171V157.218H33.448V156.171H22.1293ZM159.565 265.304H159.818H159.565ZM143.28 228.468C143.328 228.625 143.369 228.782 143.414 228.936C143.374 228.782 143.331 228.625 143.28 228.468ZM175.174 192.901H175.189H175.174ZM159.565 265.296H159.818H159.565ZM143.28 228.468C143.328 228.625 143.369 228.782 143.414 228.936C143.374 228.782 143.331 228.625 143.28 228.468Z" fill="#7A96EC"/>
<path d="M100.962 204.13C100.962 204.13 99.9639 203.995 99.9639 202.587C99.9639 201.179 99.2494 198.55 99.2494 198.55C99.2494 198.537 98.6311 193.97 97.7772 193.244C96.9233 192.518 95.8262 188.255 95.8262 188.255C95.8262 188.255 95.6387 185.942 95.2561 185.444C94.8734 184.946 94.3565 183.727 93.5939 181.988C92.8312 180.248 89.6512 179.044 89.6512 179.044C89.6512 179.044 83.9019 175.816 82.2726 174.764C82.1245 174.677 81.9861 174.576 81.8596 174.462C81.5758 174.101 80.3393 174.094 80.3393 174.094C80.2101 173.304 80.0859 172.397 80.0454 171.575C80.0454 171.487 80.0454 171.398 80.0327 171.31C81.8495 170.27 83.2179 168.631 83.8867 166.694C83.9171 166.6 83.9424 166.502 83.9703 166.409C84.0792 166.374 84.1793 166.318 84.2644 166.244C84.3495 166.169 84.4176 166.079 84.4644 165.977C84.6114 165.661 84.6139 165.291 84.7963 164.996C85.0092 164.648 85.4146 164.461 85.7339 164.199C86.5396 163.537 86.7474 162.421 86.7094 161.405C86.6841 160.583 86.5472 159.754 86.6004 158.937L86.6156 158.731C86.6309 158.609 86.6486 158.486 86.6714 158.368C86.7956 157.76 87.0667 157.186 87.2187 156.583C87.3707 155.979 87.3859 155.3 87.0312 154.78C86.5118 154.017 85.4298 153.865 84.4796 153.786C83.4027 153.698 82.4399 153.813 81.7507 152.947C81.4281 152.495 81.0652 152.071 80.6662 151.679C80.5243 151.552 79.1459 150.737 79.1459 150.683C77.8005 150.08 76.2756 149.967 74.851 150.364C74.1365 150.566 73.4625 150.894 72.7378 151.059C71.1744 151.417 69.3754 151.029 68.0476 151.895C67.3078 152.386 66.8643 153.166 66.4488 153.926C66.1109 154.552 65.768 155.178 65.42 155.803C64.8601 156.83 64.2899 157.875 64.0543 159.013C64.0047 159.261 63.9743 159.512 63.9631 159.764V159.776C63.9631 159.867 63.9631 159.958 63.9631 160.049V160.164C63.9631 160.25 63.9631 160.333 63.9783 160.409C63.9935 160.485 63.9909 160.51 63.9985 160.561C64.0061 160.613 64.0188 160.728 64.034 160.807C64.0492 160.885 64.0796 161.022 64.11 161.13C64.1227 161.177 64.1404 161.221 64.1556 161.265C64.181 161.349 64.2114 161.43 64.2443 161.511C64.2621 161.552 64.2798 161.596 64.3001 161.638C64.3381 161.724 64.3837 161.807 64.4293 161.883C64.4496 161.918 64.4648 161.95 64.485 161.982C64.5557 162.096 64.6336 162.205 64.7182 162.31C65.2604 162.965 66.0586 163.382 66.649 163.995C66.649 164.02 66.649 164.044 66.649 164.067C66.649 164.135 66.649 164.201 66.649 164.27C66.6803 165.638 67.0563 166.977 67.7443 168.172C68.4323 169.367 69.4115 170.381 70.5967 171.126C70.5967 171.219 70.6094 171.315 70.6144 171.408C70.6638 172.136 70.6545 172.867 70.5865 173.594C70.4834 173.476 70.3542 173.382 70.2086 173.319C70.063 173.257 69.9047 173.226 69.7453 173.231C69.6364 173.225 69.5273 173.235 69.421 173.258L69.3982 173.24V173.263C68.8407 173.395 68.1541 173.957 67.4978 175.554C67.4978 175.554 65.5011 177.732 63.9808 177.641C62.4605 177.55 58.6116 179.907 58.6116 179.907C58.6116 179.907 54.8564 182.267 54.0507 184.671C53.6003 186.034 53.0603 187.368 52.4341 188.664L47.7921 197.924L46.9356 205.271C46.9356 205.271 47.4095 208.538 47.3157 209.036C47.222 209.534 49.2642 214.025 49.2642 214.025C49.2642 214.025 56.0119 225.502 58.7687 226.091L58.9663 225.956C59.0843 226.016 59.2094 226.061 59.3388 226.091L59.9064 225.704C59.9405 226.135 59.926 226.57 59.8633 226.999C59.4832 228.132 60.0052 235.527 60.6691 236.977C61.3329 238.427 61.0973 257.435 61.0973 257.435L61.0035 259.112C61.0035 259.112 61.0035 259.166 61.0264 259.259L61.0035 259.657L61.072 259.691C61.143 260.223 61.1199 260.763 61.0035 261.288C60.7654 262.024 60.6691 264.104 60.6691 264.104C60.6691 264.104 58.7712 275.849 59.6707 278.208C60.5703 280.568 61.3355 283.153 61.3355 283.153C61.3355 283.153 62.2857 286.097 61.3811 286.6C60.4765 287.103 57.9047 287.946 58.4342 289.173C58.9157 290.306 60.7426 293.343 61.0137 293.787L60.9909 294.02L60.6184 297.927C60.6787 298.443 60.8233 298.947 61.0466 299.419C61.4546 300.27 62.2477 301.153 63.7553 301.057C64.0087 301.04 64.3026 301.011 64.5864 300.974C67.3458 300.616 70.7436 299.424 70.7436 299.424C70.5672 299.315 70.4055 299.186 70.2622 299.039V299.039C70.1266 298.911 70.0191 298.759 69.9464 298.59C69.8736 298.421 69.8371 298.24 69.8391 298.057C69.8796 297.346 68.5037 293.956 68.1617 293.122C68.1084 293.002 68.0806 292.933 68.0806 292.933C68.0806 292.933 71.2175 289.759 70.6955 286.946C70.6955 286.946 67.2241 284.983 68.3669 283.906C69.5097 282.83 71.5519 279.737 71.5519 279.737C71.5519 279.737 71.6457 268.171 71.5519 266.444C71.4542 265.246 71.5129 264.04 71.7268 262.855C71.7648 262.676 71.8104 262.502 71.8585 262.331C73.439 262.559 75.0344 262.676 76.6323 262.681C77.2151 262.681 77.808 262.681 78.406 262.647C78.406 262.811 78.4136 262.987 78.4288 263.177C78.5606 266.042 78.8063 271.065 79.0065 272.932C79.2903 275.608 80.8588 282.82 80.8588 282.82C80.8588 282.82 77.8663 284.679 81.3807 289.261C81.3807 289.261 81.3807 290.922 81.1476 291.162C80.8987 291.948 80.6982 292.747 80.5471 293.556C80.4001 294.42 80.3393 295.293 80.5775 295.747C81.1476 296.831 84.5683 296.743 84.5683 296.743L84.6519 296.728C85.2977 296.663 85.9503 296.723 86.5719 296.905C87.1935 297.086 87.7716 297.386 88.2728 297.785C89.5726 298.796 94.506 298.352 97.1767 298.03C98.2232 297.903 98.9225 297.785 98.9225 297.785C98.9564 297.67 98.9685 297.551 98.958 297.432C98.9301 296.797 98.4158 295.403 94.9292 294.16C94.9292 294.16 91.6504 292.026 91.696 290.166H91.6276H91.2475C91.5237 290.152 91.7011 290.166 91.7011 290.166C91.7011 290.166 90.4164 285.628 90.9409 285.26C91.4654 284.893 89.8944 279.864 89.8944 279.864C89.8944 279.864 88.9949 271.426 88.9468 270.835C88.9488 270.328 89.0282 269.823 89.1824 269.339L88.9468 264.712C88.9468 264.712 88.9012 263.174 88.9468 262.674C88.9391 262.24 88.9027 261.806 88.8378 261.376C88.815 261.205 88.7922 261.026 88.7669 260.849C89.9958 260.547 90.794 260.268 90.794 260.268L90.6521 244.164C91.696 242.202 91.8886 237.897 91.8835 234.843C91.8835 232.881 91.7923 231.429 91.7923 231.429L93.2188 229.174C93.2188 229.174 93.5482 226.476 93.0263 225.885C92.7957 225.618 92.8996 225.341 93.0896 225.112C93.1883 225.037 93.2925 224.968 93.4013 224.906C93.4013 224.906 93.3861 224.884 93.3683 224.852C93.468 224.772 93.5738 224.699 93.6851 224.634C93.6851 224.634 93.1783 223.874 93.6319 223.552C94.0576 223.832 94.4376 224.043 94.7265 224.215C94.7062 224.394 94.6859 224.497 94.6859 224.497L94.8076 224.251C95.0863 224.403 95.2561 224.497 95.2561 224.497C95.2561 224.497 97.4909 220.187 97.4428 219.552C97.3946 218.916 98.9631 216.24 98.9631 216.24C98.9631 216.24 99.1531 214.835 100.01 214.246C100.866 213.657 100.673 209.392 100.673 209.392C100.673 209.392 100.912 207.169 101.482 206.262C102.052 205.354 100.962 204.13 100.962 204.13ZM58.2011 202.239L58.2442 203.267C57.9908 202.872 57.8084 202.587 57.8084 202.587L58.2011 202.239Z" fill="url(#paint0_linear_2_9)"/>
<path d="M95.3777 222.635L94.8304 224.892C94.8304 224.892 90.4468 222.726 89.6563 219.974C88.8657 217.221 90.9789 216.176 90.9789 216.176L95.0635 217.852L95.3777 222.635Z" fill="white"/>
<path opacity="0.1" d="M95.3777 222.635L94.8304 224.892C94.8304 224.892 90.4468 222.726 89.6563 219.974C88.8657 217.221 90.9789 216.176 90.9789 216.176L95.0635 217.852L95.3777 222.635Z" fill="black"/>
<path d="M70.7766 299.438C70.7766 299.438 66.7224 300.881 63.9352 301.062C62.4554 301.158 61.6776 300.28 61.2772 299.433C61.0585 298.963 60.9174 298.462 60.8591 297.949L61.2215 294.062L61.414 291.991L67.3356 290.502L68.1743 292.985L68.2529 293.174C68.5899 294.003 69.9404 297.375 69.8999 298.079C69.8982 298.26 69.9342 298.438 70.0056 298.605C70.077 298.771 70.1824 298.922 70.3154 299.048C70.4514 299.197 70.6064 299.328 70.7766 299.438V299.438Z" fill="white"/>
<path d="M98.469 297.461C98.4791 297.579 98.4671 297.698 98.4335 297.812C98.4335 297.812 89.7627 299.213 87.989 297.812C87.4889 297.403 86.906 297.099 86.2776 296.921C85.6493 296.743 84.9894 296.694 84.3403 296.777C84.3403 296.777 80.9854 296.865 80.4255 295.796C80.1924 295.347 80.2532 294.476 80.3976 293.618C80.5449 292.813 80.7412 292.018 80.9854 291.236L81.1197 291.133L81.9179 290.512L91.2627 290.245H91.3337C91.2881 292.094 94.506 294.216 94.506 294.216C97.9242 295.443 98.4284 296.828 98.469 297.461Z" fill="white"/>
<path opacity="0.1" d="M98.469 297.461C98.4779 297.579 98.465 297.698 98.431 297.812C98.431 297.812 89.7627 299.213 87.989 297.812C87.4892 297.403 86.9067 297.1 86.2788 296.922C85.6509 296.743 84.9915 296.694 84.3428 296.777C84.3428 296.777 80.9854 296.865 80.428 295.796C80.1949 295.344 80.2532 294.476 80.3976 293.618C81.6899 293.743 83.7296 294.054 84.5303 294.797C85.7415 295.928 87.7939 297.057 89.0532 297.145C90.0389 297.206 95.9351 297.388 98.469 297.461Z" fill="black"/>
<path opacity="0.1" d="M70.7766 299.438C70.7766 299.438 66.7224 300.881 63.9352 301.062C62.4554 301.158 61.6775 300.28 61.2797 299.431C62.311 299.767 63.7426 300.12 64.4952 299.796C65.3871 299.414 68.5493 299.166 70.323 299.061C70.458 299.204 70.6103 299.33 70.7766 299.438V299.438Z" fill="black"/>
<path d="M76.792 183.207C73.4473 181.948 69.1448 177.791 70.2192 175.848C70.4578 175.358 70.5996 174.829 70.6372 174.288C70.7064 173.554 70.7165 172.816 70.6676 172.08C70.5923 170.876 70.4426 169.676 70.2192 168.489C70.2192 168.489 80.6611 168.717 80.053 170.206C79.8756 170.643 79.8478 171.401 79.8959 172.249C79.9441 173.098 80.0707 174.057 80.2025 174.869C80.3849 175.983 80.5674 176.832 80.5674 176.832C80.5674 176.832 79.9289 177.697 79.5538 177.744C79.1788 177.791 81.5911 185 76.792 183.207Z" fill="#CF6F80"/>
<path opacity="0.1" d="M68.2453 293.174L68.1667 293.257C65.045 289.602 61.2696 294.157 61.2696 294.157L61.2139 294.062L61.4064 291.991L67.328 290.502L68.1667 292.985L68.2453 293.174Z" fill="black"/>
<path opacity="0.1" d="M91.3362 290.502C91.3362 290.502 89.0558 290.456 87.8395 291.496C86.6233 292.536 80.7447 291.721 80.9981 291.496C81.0732 291.384 81.1185 291.256 81.1299 291.123L81.928 290.502L91.2729 290.235C91.3083 290.399 91.3362 290.502 91.3362 290.502Z" fill="black"/>
<path d="M72.1297 261.801C71.9598 262.207 71.8308 262.629 71.7445 263.059C71.5332 264.238 71.4745 265.438 71.5697 266.631C71.6634 268.348 71.5697 279.854 71.5697 279.854C71.5697 279.854 69.5654 282.923 68.448 284.005C67.3306 285.086 70.7284 287.029 70.7284 287.029C71.2352 289.825 68.1642 292.985 68.1642 292.985C65.0425 289.33 61.2671 293.887 61.2671 293.887C61.2671 293.887 59.2147 290.453 58.7028 289.227C58.191 288 60.7071 287.152 61.5914 286.654C62.4757 286.156 61.5483 283.22 61.5483 283.22C61.5483 283.22 60.8008 280.647 59.914 278.299C59.0271 275.952 60.8921 264.266 60.8921 264.266C60.8921 264.266 60.9883 262.191 61.2189 261.467C61.3353 260.945 61.3584 260.407 61.2873 259.878C61.2721 259.699 61.2544 259.549 61.2417 259.448C61.2291 259.348 61.2189 259.301 61.2189 259.301L61.2544 259.242L62.5213 256.956C62.5213 256.956 72.7378 260.361 72.1297 261.801Z" fill="#7A96EC"/>
<path d="M91.3362 290.233C91.3362 290.233 89.0557 290.186 87.8395 291.214C86.6233 292.241 80.7447 291.439 80.9981 291.214C81.2515 290.988 81.2312 289.318 81.2312 289.318C77.7827 284.76 80.7245 282.911 80.7245 282.911C80.7245 282.911 79.1839 275.736 78.9052 273.074C78.7101 271.215 78.4693 266.218 78.3401 263.366C78.2844 262.139 78.2514 261.295 78.2514 261.295L81.0691 260.746L81.4314 260.675L88.2272 259.355C88.2272 259.355 88.4147 260.582 88.5414 261.585C88.6045 262.013 88.6401 262.445 88.6478 262.878C88.6022 263.368 88.6478 264.904 88.6478 264.904L88.8784 269.508C88.7277 269.991 88.6501 270.492 88.6478 270.997C88.6934 271.583 89.5777 279.977 89.5777 279.977C89.5777 279.977 91.1158 284.986 90.5913 285.346C90.0668 285.707 91.3362 290.233 91.3362 290.233Z" fill="#7A96EC"/>
<path opacity="0.1" d="M80.053 170.206C79.8756 170.643 79.8478 171.401 79.8959 172.249C78.4972 173.065 76.8894 173.482 75.257 173.452C73.6246 173.423 72.0339 172.948 70.6676 172.083C70.5924 170.877 70.4426 169.677 70.2191 168.489C70.2191 168.489 80.6611 168.712 80.053 170.206Z" fill="black"/>
<path d="M84.0894 164.785C84.0914 165.669 83.9477 166.548 83.6637 167.388C83.0289 169.27 81.7272 170.874 79.9885 171.917C78.2499 172.961 76.1864 173.375 74.1627 173.088C72.1389 172.8 70.2853 171.83 68.9294 170.347C67.5734 168.865 66.8025 166.966 66.7529 164.986C66.7529 164.918 66.7529 164.854 66.7529 164.785C66.7332 163.671 66.9429 162.564 67.3697 161.529C67.7966 160.494 68.432 159.552 69.239 158.757C70.046 157.963 71.0084 157.331 72.07 156.901C73.1316 156.47 74.2713 156.248 75.4224 156.248C76.5736 156.248 77.7132 156.47 78.7748 156.901C79.8364 157.331 80.7988 157.963 81.6058 158.757C82.4128 159.552 83.0482 160.494 83.4751 161.529C83.9019 162.564 84.1116 163.671 84.092 164.785H84.0894Z" fill="#CF6F80"/>
<path opacity="0.1" d="M76.792 183.207C73.4473 181.948 69.1448 177.791 70.2192 175.848C70.4578 175.358 70.5996 174.829 70.6372 174.288L75.2159 177.93L78.0487 180.18L80.2025 174.872C80.3849 175.985 80.5674 176.834 80.5674 176.834C80.5674 176.834 79.9289 177.7 79.5538 177.746C79.1788 177.793 81.5911 185 76.792 183.207Z" fill="black"/>
<path d="M88.6326 199.305L84.809 261.487L79.8224 261.803L66.9099 225.748L69.0282 182.942L69.4742 173.898L75.2159 178.463L78.0513 180.712L80.2684 175.249L84.3909 178.728L88.6326 199.305Z" fill="#7A96EC"/>
<path opacity="0.1" d="M72.1296 261.801C71.9598 262.207 71.8308 262.629 71.7445 263.059C68.116 262.517 64.592 261.451 61.2898 259.897L61.2214 259.863L61.2442 259.468L61.2569 259.262L62.5238 256.976C62.5238 256.976 72.7378 260.361 72.1296 261.801Z" fill="black"/>
<path opacity="0.1" d="M81.1274 263.069C80.1998 263.222 79.2642 263.325 78.3249 263.378C78.2692 262.152 78.2362 261.308 78.2362 261.308L81.0539 260.758L81.1274 263.069Z" fill="black"/>
<path opacity="0.1" d="M88.5262 261.597C86.7246 262.051 83.9424 262.561 81.4517 262.242L81.4162 260.687L88.212 259.367C88.212 259.367 88.3995 260.582 88.5262 261.597Z" fill="black"/>
<path opacity="0.1" d="M81.4061 262.527C71.0173 264.244 61.5027 259.321 61.5027 259.321L61.5939 257.653C61.5939 257.653 61.8296 238.743 61.1759 237.294C60.5221 235.844 60.0128 228.493 60.3828 227.364C60.7527 226.236 59.0322 209.316 59.0322 209.316L58.7535 202.447L48.5522 198.447L53.1132 189.243C53.7292 187.953 54.259 186.626 54.6994 185.27C55.4924 182.88 59.1741 180.533 59.1741 180.533C59.1741 180.533 62.9495 178.188 64.442 178.276C65.9344 178.365 67.8906 176.201 67.8906 176.201C69.3348 172.637 70.6423 174.251 70.6423 174.251C70.6423 174.42 70.6423 174.251 70.5714 174.778C70.0646 178.691 78.7658 191.054 78.89 191.272L79.7185 210.812L80.5572 235.54L81.4061 262.527Z" fill="black"/>
<path d="M81.1273 262.527C70.7386 264.244 61.2215 259.321 61.2215 259.321L61.3152 257.653C61.3152 257.653 61.5508 238.743 60.8946 237.294C60.2383 235.844 59.7315 228.493 60.104 227.364C60.4765 226.236 58.7535 209.316 58.7535 209.316L58.4722 202.447L48.2659 198.432L52.8268 189.229C53.4415 187.938 53.9713 186.61 54.413 185.255C55.2036 182.866 58.8878 180.518 58.8878 180.518C58.8878 180.518 62.6632 178.173 64.1531 178.262C65.643 178.35 67.6017 176.186 67.6017 176.186C69.0485 172.622 70.6423 174.236 70.6423 174.236C70.6423 174.406 70.4903 174.482 70.5713 174.764C71.6862 178.558 78.4871 191.039 78.6112 191.257L79.4499 210.797L80.2886 235.525L81.1273 262.527Z" fill="white"/>
<path opacity="0.1" d="M78.3274 191.814C77.21 191.363 71.291 184.821 71.291 184.821V183.332C71.0756 182.841 69.796 183.14 68.7571 183.484L69.2031 174.44L69.7098 174.847C70.8197 178.639 78.1982 191.596 78.3274 191.814Z" fill="black"/>
<path d="M78.6087 191.272C77.4887 190.821 71.5697 184.279 71.5697 184.279V182.79C71.3543 182.299 70.0747 182.598 69.0358 182.942L69.4843 173.898L69.9911 174.305C71.1034 178.097 78.4845 191.056 78.6087 191.272Z" fill="white"/>
<path opacity="0.1" d="M61.5027 223.898C61.6421 223.898 68.7267 223.177 68.7267 223.177C68.7267 223.177 73.0165 231.343 72.7352 233.33C72.454 235.317 71.9447 237.075 70.2191 236.764C68.4936 236.452 60.9326 237.009 60.9326 237.009L61.5027 223.898Z" fill="black"/>
<path d="M61.2215 223.356C61.3608 223.356 68.4454 222.635 68.4454 222.635C68.4454 222.635 72.7327 230.803 72.454 232.788C72.1753 234.772 71.6609 236.533 69.9379 236.222C68.2149 235.91 60.6513 236.467 60.6513 236.467L61.2215 223.356Z" fill="white"/>
<path d="M66.5603 219.522C66.5603 219.522 73.0621 222.905 73.2015 223.937C73.3409 224.97 69.8923 223.486 69.1473 223.307C68.657 223.193 68.1579 223.117 67.6549 223.081L62.686 223.211L66.5603 219.522Z" fill="#CF6F80"/>
<path opacity="0.1" d="M76.5132 192.236C76.891 192.236 77.1973 191.939 77.1973 191.574C77.1973 191.208 76.891 190.911 76.5132 190.911C76.1354 190.911 75.8291 191.208 75.8291 191.574C75.8291 191.939 76.1354 192.236 76.5132 192.236Z" fill="black"/>
<path d="M76.5132 191.966C76.891 191.966 77.1973 191.67 77.1973 191.304C77.1973 190.938 76.891 190.641 76.5132 190.641C76.1354 190.641 75.8291 190.938 75.8291 191.304C75.8291 191.67 76.1354 191.966 76.5132 191.966Z" fill="#3F3D56"/>
<path opacity="0.1" d="M77.7725 220.906C78.1504 220.906 78.4567 220.609 78.4567 220.243C78.4567 219.878 78.1504 219.581 77.7725 219.581C77.3947 219.581 77.0884 219.878 77.0884 220.243C77.0884 220.609 77.3947 220.906 77.7725 220.906Z" fill="black"/>
<path d="M77.7725 220.633C78.1504 220.633 78.4567 220.337 78.4567 219.971C78.4567 219.605 78.1504 219.309 77.7725 219.309C77.3947 219.309 77.0884 219.605 77.0884 219.971C77.0884 220.337 77.3947 220.633 77.7725 220.633Z" fill="#3F3D56"/>
<path opacity="0.1" d="M77.1948 206.571C77.5727 206.571 77.879 206.274 77.879 205.908C77.879 205.543 77.5727 205.246 77.1948 205.246C76.817 205.246 76.5107 205.543 76.5107 205.908C76.5107 206.274 76.817 206.571 77.1948 206.571Z" fill="black"/>
<path d="M77.1948 206.301C77.5727 206.301 77.879 206.004 77.879 205.639C77.879 205.273 77.5727 204.976 77.1948 204.976C76.817 204.976 76.5107 205.273 76.5107 205.639C76.5107 206.004 76.817 206.301 77.1948 206.301Z" fill="#3F3D56"/>
<path d="M92.9655 222.944C92.9655 222.944 93.4317 223.621 92.9655 223.937C92.4992 224.254 93.0111 225.019 93.0111 225.019C93.0111 225.019 91.848 225.679 92.3599 226.273C92.8717 226.866 92.5474 229.547 92.5474 229.547L91.1487 231.789C91.1487 231.789 91.2323 233.234 91.2374 235.187C91.2374 238.233 91.0524 242.516 90.0287 244.468L90.1706 260.488C90.1706 260.488 85.2727 262.22 81.1729 261.693L80.5648 235.986C80.5648 235.986 81.4517 221.408 81.7785 218.612C81.9698 217.16 82.0477 215.697 82.0116 214.234C82.0116 214.234 81.8723 209.858 81.4035 207.827C81.4035 207.827 80.8968 199.028 80.8461 196.592C80.8233 195.427 80.8866 192.027 80.9576 188.794C81.0361 185.26 81.1248 181.926 81.1248 181.926L80.2 174.842C80.2 174.842 81.1248 174.751 81.4035 175.112C81.5284 175.225 81.6641 175.326 81.8089 175.414V175.414C83.4053 176.459 89.0456 179.672 89.0456 179.672C89.0456 179.672 92.1673 180.874 92.9148 182.596C93.6623 184.318 94.1817 185.539 94.5441 186.03C94.9064 186.521 95.104 188.826 95.104 188.826C95.104 188.826 96.1784 193.07 97.0171 193.789C97.8558 194.507 98.469 199.08 98.469 199.08L91.0575 204.721C91.0575 204.721 90.4063 214.106 90.2669 214.469C90.1276 214.832 92.9655 222.944 92.9655 222.944Z" fill="white"/>
<path d="M93.2467 222.944C93.2467 222.944 93.7104 223.621 93.2467 223.937C92.783 224.254 93.2898 225.019 93.2898 225.019C93.2898 225.019 92.1344 225.686 92.6411 226.28C93.1479 226.874 92.8286 229.555 92.8286 229.555L91.43 231.797C91.43 231.797 91.5136 233.241 91.5212 235.194C91.5212 238.24 91.3362 242.523 90.3125 244.476L90.4519 260.496C90.4519 260.496 85.5464 262.228 81.4517 261.7L80.8461 235.994C80.8461 235.994 81.7329 221.416 82.0598 218.619C82.2513 217.168 82.3284 215.704 82.2904 214.241C82.2904 214.241 82.151 209.865 81.6848 207.834C81.6848 207.834 81.178 199.035 81.1248 196.6C81.102 195.434 81.1679 192.035 81.2363 188.802C81.3148 185.267 81.4035 181.934 81.4035 181.934L80.1822 174.754C80.1822 174.754 81.4035 174.754 81.6848 175.119C81.8085 175.234 81.9444 175.335 82.0902 175.421C83.6865 176.466 89.3294 179.679 89.3294 179.679C89.3294 179.679 92.4486 180.881 93.1961 182.603C93.9435 184.325 94.463 185.547 94.8278 186.037C95.1927 186.528 95.3853 188.834 95.3853 188.834C95.3853 188.834 96.4596 193.077 97.2983 193.796C98.137 194.515 98.7426 199.077 98.7426 199.077L91.3311 204.719C91.3311 204.719 90.6799 214.104 90.5381 214.467C90.3962 214.83 93.2467 222.944 93.2467 222.944Z" fill="white"/>
<path opacity="0.1" d="M84.3707 184.016L85.0396 185.905L81.5176 189.339C81.5961 185.807 81.6848 182.471 81.6848 182.471L80.4635 175.291C80.4635 175.291 81.6848 175.291 81.966 175.657C82.0894 175.77 82.2253 175.871 82.3715 175.956L85.3665 184.32L84.3707 184.016Z" fill="black"/>
<path d="M84.0894 183.474L84.7609 185.363L81.2388 188.797C81.3174 185.262 81.4061 181.929 81.4061 181.929L80.1822 174.749C80.1822 174.749 81.4061 174.749 81.6848 175.114C81.8091 175.228 81.9449 175.329 82.0902 175.416L85.0877 183.778L84.0894 183.474Z" fill="white"/>
<path opacity="0.1" d="M84.0894 164.785C84.0914 165.669 83.9477 166.548 83.6637 167.388C83.6159 167.395 83.567 167.393 83.52 167.381C83.473 167.37 83.4288 167.35 83.3901 167.322C83.3242 165.114 82.2017 163.041 80.8208 161.278C80.4331 160.745 79.963 160.273 79.4271 159.879C78.8854 159.485 78.2115 159.301 77.5369 159.362C76.7767 159.462 76.1053 159.963 75.3375 160.027C74.324 160.107 73.4169 159.428 72.4109 159.394C72.002 159.397 71.5986 159.486 71.2276 159.652C70.8567 159.819 70.5267 160.06 70.2597 160.36C69.7312 160.965 69.3386 161.67 69.1068 162.43C68.7084 163.583 68.4914 164.787 68.4632 166.002C68.4505 166.689 68.3821 167.55 67.7233 167.8C67.7729 167.295 67.7136 166.785 67.5492 166.303C67.3847 165.822 67.1188 165.378 66.7681 165.001L66.7529 164.986C66.7529 164.918 66.7529 164.854 66.7529 164.785C66.7332 163.671 66.9429 162.564 67.3697 161.529C67.7966 160.494 68.432 159.552 69.239 158.757C70.046 157.963 71.0084 157.331 72.07 156.901C73.1316 156.47 74.2713 156.248 75.4224 156.248C76.5736 156.248 77.7132 156.47 78.7748 156.901C79.8364 157.331 80.7988 157.963 81.6058 158.757C82.4128 159.552 83.0482 160.494 83.4751 161.529C83.9019 162.564 84.1116 163.671 84.092 164.785H84.0894Z" fill="black"/>
<path d="M79.0116 151.458C77.6949 150.859 76.1973 150.746 74.8003 151.14C74.0985 151.341 73.4371 151.667 72.7251 151.831C71.2048 152.187 69.4311 151.802 68.1262 152.663C67.4015 153.153 66.9657 153.929 66.5603 154.682L65.5467 156.551C64.9944 157.574 64.4369 158.614 64.2063 159.74C63.9758 160.865 64.1151 162.126 64.8525 163.031C65.3896 163.691 66.1827 164.106 66.7655 164.726C67.1147 165.104 67.3795 165.547 67.5434 166.028C67.7074 166.509 67.7669 167.018 67.7183 167.523C68.3796 167.277 68.4429 166.414 68.4581 165.727C68.4864 164.512 68.7033 163.308 69.1017 162.156C69.333 161.395 69.7257 160.69 70.2546 160.085C70.5218 159.786 70.8518 159.545 71.2227 159.378C71.5937 159.211 71.997 159.123 72.4059 159.119C73.4194 159.153 74.329 159.83 75.3325 159.749C76.0926 159.688 76.7666 159.185 77.5318 159.087C78.2065 159.025 78.8808 159.21 79.4221 159.605C79.9578 159.998 80.4271 160.47 80.8132 161.003C82.1966 162.766 83.3191 164.834 83.385 167.047C83.6713 167.25 84.0844 166.985 84.2262 166.672C84.3681 166.358 84.3732 165.99 84.5531 165.69C84.7609 165.344 85.1587 165.161 85.4704 164.9C86.2609 164.241 86.4586 163.129 86.4282 162.121C86.3978 161.113 86.195 160.09 86.3927 159.099C86.5118 158.491 86.7804 157.922 86.9273 157.321C87.0743 156.72 87.092 156.045 86.7449 155.528C86.2381 154.767 85.1714 154.618 84.2414 154.547C83.1848 154.458 82.2397 154.571 81.5657 153.71C81.2493 153.261 80.8933 152.839 80.5015 152.449C80.3672 152.322 79.0116 151.512 79.0116 151.458Z" fill="#512E4E"/>
<path opacity="0.1" d="M51.4712 203.186L48.8234 198.447L47.9846 205.759C47.9846 205.759 48.4509 209.006 48.3571 209.504C48.2634 210.002 50.2676 214.467 50.2676 214.467C50.2676 214.467 56.8886 225.883 59.5922 226.471L68.7267 220.153L66.3043 217.175C66.3043 217.175 65.4656 216.858 65.2553 217.175C65.2553 217.175 60.7578 209.684 60.2915 209.141C59.8253 208.599 59.9165 207.518 59.9165 207.518C59.9165 207.518 59.2172 206.796 59.4503 206.119C59.6834 205.442 58.0998 203.095 58.0998 203.095L59.544 201.788L51.4712 203.186Z" fill="black"/>
<path d="M48.9627 197.907L48.2634 198.447L47.4247 205.759C47.4247 205.759 47.8909 209.006 47.7971 209.504C47.7034 210.002 49.7102 214.467 49.7102 214.467C49.7102 214.467 56.3286 225.883 59.0322 226.471L68.1692 220.153L65.7444 217.175C65.7444 217.175 64.9056 216.858 64.6953 217.175C64.6953 217.175 60.1978 209.683 59.7315 209.141C59.2653 208.599 59.3591 207.518 59.3591 207.518C59.3591 207.518 58.6597 206.796 58.8928 206.119C59.1259 205.442 57.5398 203.095 57.5398 203.095L58.9841 201.788L48.9627 197.907Z" fill="white"/>
<path opacity="0.1" d="M92.3599 226.552C92.8667 227.148 92.5474 229.824 92.5474 229.824L91.1487 232.066C91.1487 232.066 91.2323 233.514 91.2374 235.464L88.886 236.175C88.6735 236.239 88.4482 236.253 88.2289 236.216C88.0096 236.179 87.8027 236.092 87.6254 235.961C87.4481 235.831 87.3055 235.661 87.2097 235.467C87.1138 235.272 87.0674 235.059 87.0743 234.843L87.4797 222.184L92.9655 224.215C92.4992 224.529 93.0111 225.299 93.0111 225.299C93.0111 225.299 91.848 225.956 92.3599 226.552Z" fill="black"/>
<path d="M92.6411 226.28C93.1479 226.876 92.8286 229.555 92.8286 229.555L91.4299 231.797C91.4299 231.797 91.5135 233.241 91.5212 235.194L89.1267 235.917C88.9186 235.98 88.698 235.994 88.4834 235.957C88.2687 235.921 88.0662 235.835 87.8927 235.707C87.7192 235.58 87.5797 235.414 87.4858 235.223C87.3919 235.033 87.3464 234.823 87.353 234.613L87.7609 221.914L93.2492 223.945C92.7805 224.259 93.2923 225.027 93.2923 225.027C93.2923 225.027 92.1343 225.686 92.6411 226.28Z" fill="white"/>
<path d="M94.4579 220.246C94.4579 220.246 94.0854 222.549 93.153 222.684C92.2205 222.819 91.8024 226.41 90.8725 226.282C89.9426 226.155 90.5583 222.944 90.5912 222.321C90.6242 221.698 89.5777 219.117 90.3607 218.531C91.1436 217.945 93.6217 218.531 93.6217 218.531L94.4579 220.246Z" fill="#CF6F80"/>
<path opacity="0.1" d="M96.4419 202.509L98.2004 199.075C98.2004 199.075 98.8997 201.692 98.8997 203.09C98.8997 204.488 99.8778 204.626 99.8778 204.626C99.8778 204.626 100.95 205.852 100.385 206.745C99.8195 207.638 99.5915 209.86 99.5915 209.86C99.5915 209.86 99.7764 214.101 98.9377 214.687C98.099 215.274 97.9242 216.674 97.9242 216.674C97.9242 216.674 96.3836 219.336 96.4318 219.969C96.4799 220.601 94.2881 224.887 94.2881 224.887C94.2881 224.887 95.3599 219.561 89.114 217.261C89.114 217.261 89.0659 215.453 89.5321 214.957C89.9983 214.462 90.7256 214.236 90.2695 211.732C89.8134 209.227 90.1377 206.235 90.1377 205.634C90.1377 205.033 91.5364 201.285 91.5364 201.285L96.4419 202.509Z" fill="black"/>
<path d="M97.202 198.584L98.7376 199.075C98.7376 199.075 99.4394 201.692 99.4394 203.09C99.4394 204.488 100.417 204.626 100.417 204.626C100.417 204.626 101.489 205.852 100.924 206.745C100.359 207.638 100.134 209.86 100.134 209.86C100.134 209.86 100.319 214.101 99.48 214.687C98.6413 215.274 98.4538 216.674 98.4538 216.674C98.4538 216.674 96.9157 219.336 96.9639 219.969C97.012 220.601 94.8177 224.887 94.8177 224.887C94.8177 224.887 95.892 219.561 89.6436 217.261C89.6436 217.261 89.598 215.453 90.0642 214.957C90.5304 214.462 91.2576 214.236 90.8015 211.732C90.3455 209.227 90.6698 206.235 90.6698 205.634C90.6698 205.033 92.0685 201.285 92.0685 201.285L97.202 198.584Z" fill="white"/>
<path opacity="0.1" d="M63.2865 287.593C63.2865 287.593 65.7342 286.104 67.3407 287.186C68.9471 288.268 63.2865 287.593 63.2865 287.593Z" fill="black"/>
<path opacity="0.1" d="M82.3056 282.989C82.3056 282.989 84.472 282.719 86.2913 284.615C88.1106 286.511 82.3056 282.989 82.3056 282.989Z" fill="black"/>
<g opacity="0.1">
<path d="M85.4754 164.363C85.1638 164.623 84.7634 164.81 84.5556 165.156C84.3783 165.452 84.3732 165.818 84.2313 166.137C84.0894 166.456 83.6764 166.716 83.3901 166.515C83.3242 164.307 82.1992 162.234 80.8182 160.468C80.4321 159.935 79.9628 159.463 79.4271 159.07C78.8848 158.675 78.2098 158.491 77.5343 158.552C76.7742 158.653 76.1053 159.153 75.3375 159.215C74.324 159.298 73.4143 158.619 72.4084 158.584C71.9996 158.588 71.5964 158.677 71.2258 158.844C70.8552 159.011 70.5258 159.253 70.2597 159.553C69.7307 160.157 69.338 160.861 69.1068 161.621C68.7086 162.773 68.4916 163.977 68.4632 165.192C68.448 165.877 68.3821 166.73 67.7284 166.985C67.7436 167.167 67.7436 167.349 67.7284 167.53C68.3872 167.285 68.453 166.421 68.4682 165.734C68.4965 164.519 68.7134 163.316 69.1118 162.163C69.3431 161.403 69.7358 160.698 70.2647 160.093C70.5314 159.793 70.861 159.552 71.2315 159.385C71.602 159.219 72.0049 159.13 72.4134 159.126C73.427 159.161 74.3392 159.838 75.3426 159.757C76.1027 159.695 76.7767 159.193 77.5394 159.094C78.2149 159.033 78.8899 159.217 79.4322 159.612C79.9679 160.005 80.4372 160.477 80.8233 161.01C82.2042 162.774 83.3292 164.842 83.3951 167.054C83.6815 167.258 84.0945 166.993 84.2364 166.679C84.3783 166.365 84.3833 165.997 84.5607 165.698C84.7685 165.352 85.1688 165.168 85.4805 164.908C86.271 164.248 86.4687 163.137 86.4383 162.129C86.4383 162.097 86.4383 162.065 86.4383 162.035C86.3901 162.909 86.1494 163.799 85.4754 164.363Z" fill="black"/>
<path d="M66.7706 164.189C66.1878 163.569 65.3922 163.154 64.8575 162.497C64.4073 161.915 64.1502 161.214 64.1202 160.488C64.0404 161.395 64.3023 162.301 64.8575 163.036C65.3922 163.696 66.1878 164.111 66.7706 164.731C67.3301 165.338 67.6661 166.108 67.7258 166.919C67.7646 166.425 67.7 165.929 67.5359 165.46C67.3717 164.991 67.1114 164.559 66.7706 164.189V164.189Z" fill="black"/>
<path d="M86.9324 156.784C86.7829 157.385 86.5168 157.956 86.3952 158.562C86.3232 158.967 86.2968 159.378 86.3167 159.789C86.3251 159.555 86.3514 159.322 86.3952 159.092C86.5168 158.484 86.7829 157.915 86.9324 157.314C87.0195 156.982 87.0478 156.639 87.016 156.298C87.0003 156.462 86.9723 156.624 86.9324 156.784V156.784Z" fill="black"/>
</g>
<path opacity="0.1" d="M17.6317 297.567C31.2675 297.567 42.3215 295.848 42.3215 293.728C42.3215 291.608 31.2675 289.889 17.6317 289.889C3.99595 289.889 -7.05804 291.608 -7.05804 293.728C-7.05804 295.848 3.99595 297.567 17.6317 297.567Z" fill="#7A96EC"/>
<path d="M18.4273 220.189H16.8386V254.817H18.4273V220.189Z" fill="#535461"/>
<path d="M28.4107 254.712L28.3119 256.272L28.17 258.479L28.1117 259.397L27.9723 261.604L27.9115 262.522L27.7696 264.73L26.1683 289.766C26.0986 290.844 25.6076 291.855 24.7952 292.594C23.9827 293.333 22.9098 293.745 21.7948 293.745H13.4686C12.3539 293.745 11.2813 293.333 10.4693 292.594C9.65719 291.855 9.16672 290.844 9.09774 289.766L7.50395 264.712L7.36205 262.505L7.30378 261.587L7.16188 259.38L7.1036 258.462L6.96171 256.255L6.86035 254.695C6.84275 254.394 6.8887 254.094 6.9954 253.811C7.10209 253.529 7.26728 253.27 7.48082 253.052C7.69436 252.834 7.95175 252.66 8.2372 252.541C8.52266 252.422 8.83015 252.361 9.14081 252.362H26.1708C26.4803 252.364 26.7859 252.428 27.0689 252.55C27.3519 252.671 27.6062 252.847 27.8161 253.068C28.0259 253.288 28.187 253.547 28.2893 253.83C28.3915 254.113 28.4329 254.413 28.4107 254.712V254.712Z" fill="#3F3D56"/>
<path d="M28.3119 256.272L28.17 258.472H7.09346L6.95157 256.272H28.3119Z" fill="#9D9CB5"/>
<path d="M28.1117 259.39L27.9723 261.592H7.29363L7.15173 259.39H28.1117Z" fill="#9D9CB5"/>
<path d="M27.9115 262.512L27.7722 264.712H7.49382L7.35193 262.512H27.9115Z" fill="#9D9CB5"/>
<path d="M4.52666 233.168C13.7777 239.648 17.6393 249.784 17.6393 249.784C17.6393 249.784 6.49039 249.413 -2.76321 242.933C-12.0168 236.452 -15.8708 226.319 -15.8708 226.319C-15.8708 226.319 -4.72694 226.687 4.52666 233.168Z" fill="#7A96EC"/>
<path d="M-15.8784 226.319C-15.8784 226.319 -4.30375 232.537 -0.591671 237.686C3.12041 242.835 17.6393 249.784 17.6393 249.784" stroke="#535461" stroke-width="2" stroke-miterlimit="10"/>
<path d="M10.4989 220.113C15.5337 223.638 17.6393 229.155 17.6393 229.155C17.6393 229.155 11.5708 228.954 6.53347 225.429C1.49619 221.904 -0.60437 216.385 -0.60437 216.385C-0.60437 216.385 5.46166 216.586 10.4989 220.113Z" fill="#7A96EC"/>
<path d="M-0.60437 216.385C-0.60437 216.385 5.69477 219.77 7.71424 222.571C9.73372 225.372 17.6393 229.155 17.6393 229.155" stroke="#535461" stroke-width="2" stroke-miterlimit="10"/>
<path d="M24.9495 228.875C19.1647 235.03 17.9409 243.073 17.9409 243.073C17.9409 243.073 26.0973 241.135 31.877 234.978C37.6567 228.821 38.8856 220.781 38.8856 220.781C38.8856 220.781 30.7342 222.721 24.9495 228.875Z" fill="#7A96EC"/>
<path d="M38.8907 220.783C38.8907 220.783 31.355 227.092 29.4394 231.438C27.5239 235.785 17.9409 243.073 17.9409 243.073" stroke="#535461" stroke-width="2" stroke-miterlimit="10"/>
<path d="M237.301 226.709C237.301 226.709 233.117 206.561 234.719 204.054C234.719 204.054 234.777 201.724 234.681 198.753C234.681 198.64 234.681 198.528 234.681 198.412C234.963 198.594 235.256 198.758 235.56 198.903C237.036 199.637 238.729 199.848 240.349 199.501L239.082 198.135C238.778 197.809 238.461 197.456 238.395 197.024C238.33 196.592 238.512 196.207 238.669 195.822C239.873 192.879 239.936 189.177 237.618 186.93C235.659 185.041 235.183 182.603 233.057 180.879C231.503 179.616 230.65 177.764 229.844 175.973C229.162 174.46 228.475 172.934 228.085 171.33C227.781 170.076 227.66 168.779 227.242 167.555C226.823 166.331 226.04 165.141 224.817 164.594C224.381 164.4 223.897 164.29 223.499 164.032C222.977 163.691 222.663 163.137 222.285 162.651C220.367 160.198 213.944 161.643 210.903 162.639C210.077 162.89 209.311 163.3 208.653 163.846L208.681 163.802C208.704 163.765 208.732 163.728 208.757 163.691C208.424 163.952 208.137 164.262 207.906 164.611C207.462 165.291 207.277 166.083 206.907 166.819C206.461 167.689 203.981 170.12 205.048 171.099C205.122 171.165 205.208 171.218 205.301 171.256C205.701 171.417 206.142 171.46 206.568 171.379L206.522 171.484C206.158 172.348 205.971 173.272 205.972 174.204C205.972 178.235 209.406 181.502 213.645 181.502C214.442 181.503 215.234 181.384 215.994 181.151C216.012 181.244 216.027 181.338 216.044 181.431C216.044 181.468 216.057 181.504 216.062 181.541L215.928 181.723C215.921 181.711 215.914 181.701 215.905 181.691L211.927 187.072C211.319 187.487 207.817 189.94 207.619 191.78C207.412 193.793 207.204 196.151 207.204 196.151L207.176 196.656C207.002 196.797 206.799 196.899 206.58 196.956C206.361 197.013 206.132 197.024 205.909 196.987C204.667 196.791 204.667 201.402 204.667 201.402C204.667 201.402 203.841 202.138 203.274 201.501C202.706 200.863 201.206 203.024 201.206 203.024L191.806 203.416L191.59 203.429L191.084 201.91C191.029 201.75 190.911 201.617 190.756 201.54C190.601 201.464 190.421 201.449 190.255 201.501C190.216 201.513 190.178 201.529 190.141 201.547L190.105 201.567L190.04 201.611L190.007 201.64C189.988 201.656 189.972 201.674 189.956 201.692L189.926 201.726L189.91 201.741C189.852 201.819 189.813 201.91 189.797 202.005C189.781 202.101 189.789 202.198 189.819 202.29L190.255 203.593C188.441 203.946 186.586 204.942 188.099 207.684L180.431 206.313L182.912 208.329L195.718 210.888C195.548 211.182 195.66 211.609 196.189 212.21C198.47 214.803 202.625 215.507 204.298 215.688C204.739 216.645 205.291 217.55 205.942 218.386L205.798 220.969C205.798 220.969 201.564 240.657 200.788 241.655C201.18 241.226 201.538 240.769 201.86 240.289C200.631 244.333 198.913 249.87 198.462 250.699C197.737 252.023 197.066 257.383 197.892 257.726C198.145 257.832 198.87 257.78 199.904 257.704V258.148L199.858 274.973C199.858 274.973 200.066 285.292 199.496 286.276C198.926 287.26 198.774 289.322 198.774 289.322C198.774 289.322 196.493 293.392 194.687 295.028C194.674 295.041 194.661 295.052 194.646 295.062L194.59 294.68C194.59 294.68 192.419 297.334 187.615 297.184C187.615 297.184 184.724 299.004 189.011 299.102C193.298 299.2 198.774 298.955 198.774 298.955C198.774 298.955 202.597 293.313 205.8 294.049V298.325H206.781V293.981C207.235 293.691 207.625 293.315 207.925 292.875C208.225 292.435 208.43 291.941 208.527 291.422C208.61 290.888 208.549 290.341 208.348 289.836C208.147 289.332 207.814 288.887 207.381 288.545C207.187 288.375 207.031 288.167 206.923 287.936C206.815 287.705 206.758 287.454 206.755 287.201L206.72 287.23C206.72 287.144 206.697 287.056 206.687 286.965C206.406 284.758 206.053 280.203 207.298 276.832C209.003 272.211 209.52 265.774 208.278 261.943C207.878 260.718 207.549 259.473 207.293 258.212C207.262 258.053 207.234 257.901 207.209 257.758C208.058 257.869 208.898 258.033 209.725 258.249C212.601 259.017 218.892 259.159 224.264 259.117C224.277 259.259 224.292 259.409 224.31 259.559C224.406 260.599 224.606 261.627 224.908 262.63C225.582 264.592 225.891 273.244 225.891 273.244C225.891 273.244 226.76 280.357 226.286 283.252C226.033 284.861 225.779 286.477 225.635 288.101V288.133C225.635 288.133 224.211 292.058 223.17 294.189C223.144 294.243 223.116 294.297 223.091 294.349C222.813 294.373 222.54 294.432 222.278 294.523C222.278 294.523 220.882 297.221 219.49 297.667C218.099 298.114 218.561 299.583 221.71 299.043C224.86 298.504 229.616 298.062 229.616 298.062L229.821 295.31L230.789 294.138L230.536 296.882L231.567 296.686L231.43 293.348L233.014 291.43C233.014 291.43 234.927 289.781 232.084 286.538V286.61C232.053 286.563 232.025 286.514 231.992 286.467V286.453C231.521 285.746 231.146 284.429 231.833 282.091C233.074 277.867 233.797 274.033 233.797 274.033C233.797 274.033 236.569 263.763 233.237 258.904H233.384C233.042 258.22 232.801 257.494 232.666 256.745C232.65 256.657 232.634 256.566 232.621 256.473C235.086 256.336 237.506 255.904 239.48 254.972C239.472 254.962 238.284 230.59 237.301 226.709ZM206 209.71V209.76L205.494 209.784L206 209.71ZM204.262 209.943C204.179 209.961 204.101 209.997 204.034 210.049C203.816 210.347 203.679 210.694 203.636 211.057L202.846 210.885C202.846 210.885 202.291 210.77 201.493 210.64L201.115 210.272C202.154 210.189 203.233 210.066 204.262 209.943V209.943Z" fill="url(#paint1_linear_2_9)"/>
<path d="M230.419 293.382L230.117 296.858L231.128 296.662L230.976 292.892L230.419 293.382Z" fill="#1D2366"/>
<path d="M207.353 276.879C206.135 280.239 206.479 284.775 206.753 286.978C206.854 287.792 206.948 288.287 206.948 288.287C206.948 288.287 205.126 292.305 204.974 292.457C204.822 292.609 199.612 295.688 199.612 295.688L195.971 297.746C195.971 297.746 192.277 296.178 194.048 295.639C194.41 295.498 194.736 295.283 195.003 295.008C196.777 293.377 199.004 289.323 199.004 289.323C199.004 289.323 199.156 287.265 199.714 286.286C200.271 285.307 200.069 275.022 200.069 275.022L200.112 258.256V256.071L207.042 256.12C207.085 256.862 207.185 257.6 207.341 258.327C207.589 259.584 207.912 260.825 208.306 262.046C209.527 265.87 209.021 272.275 207.353 276.879Z" fill="#FFB0B1"/>
<path opacity="0.1" d="M206.948 288.287C206.948 288.287 205.126 292.305 204.974 292.457C204.822 292.609 199.612 295.688 199.612 295.688L195.971 297.746C195.971 297.746 192.277 296.178 194.048 295.639C194.41 295.498 194.736 295.283 195.003 295.008L195.161 296.08L196.374 296.031L206.763 286.982C206.854 287.792 206.948 288.287 206.948 288.287Z" fill="black"/>
<path d="M206.821 287.211L196.374 296.321L195.16 296.37L194.907 294.653C194.907 294.653 192.784 297.297 188.066 297.15C188.066 297.15 185.233 298.962 189.431 299.061C193.63 299.159 198.992 298.913 198.992 298.913C198.992 298.913 202.737 293.272 205.871 294.008V298.268H206.834V293.968C207.282 293.677 207.664 293.3 207.957 292.862C208.251 292.423 208.449 291.932 208.542 291.417C208.625 290.887 208.566 290.345 208.37 289.843C208.175 289.341 207.849 288.897 207.424 288.552C207.235 288.38 207.083 288.172 206.98 287.942C206.876 287.711 206.822 287.462 206.821 287.211V287.211Z" fill="#1D2366"/>
<path d="M231.382 282.118C230.708 284.449 231.075 285.761 231.536 286.465V286.48C232.128 287.349 232.539 288.321 232.748 289.342L232.788 289.563L228.035 296.272L225.455 297.253C225.455 297.253 221.307 295.882 222.065 295.489C222.255 295.394 222.551 294.883 222.891 294.179C223.904 292.058 225.303 288.143 225.303 288.143V288.111C225.45 286.494 225.683 284.883 225.942 283.279C226.405 280.391 225.554 273.305 225.554 273.305C225.554 273.305 225.25 264.688 224.591 262.728C224.294 261.731 224.096 260.71 224.001 259.677C223.864 258.45 223.833 257.439 223.833 257.439C223.833 257.439 226.565 253.76 231.572 257.734C231.972 258.051 232.325 258.421 232.618 258.833C236.077 263.596 233.292 274.09 233.292 274.09C233.292 274.09 232.596 277.907 231.382 282.118Z" fill="#FFB0B1"/>
<path opacity="0.1" d="M232.796 289.563L228.042 296.272L225.463 297.253C225.463 297.253 221.315 295.882 222.072 295.489C222.262 295.393 222.559 294.883 222.898 294.179C224.654 294.165 225.564 295.783 225.564 295.783L227.789 295.44C227.789 295.44 230.723 289.857 231.382 289.516C232.041 289.175 231.483 286.968 231.483 286.968V286.406C231.501 286.426 231.516 286.448 231.536 286.467V286.482C232.128 287.351 232.539 288.323 232.748 289.345L232.796 289.563Z" fill="black"/>
<path d="M225.716 295.928C225.716 295.928 224.449 293.676 222.022 294.508C222.022 294.508 220.656 297.206 219.29 297.643C217.925 298.079 218.381 299.551 221.467 299.014C224.553 298.477 229.205 298.033 229.205 298.033L229.408 295.288L232.545 291.42C232.545 291.42 234.415 289.779 231.633 286.548V287.11C231.633 287.11 232.19 289.318 231.531 289.659C230.873 290 227.948 295.585 227.948 295.585L225.716 295.928Z" fill="#1D2366"/>
<path opacity="0.1" d="M207.049 256.115C207.093 256.857 207.193 257.595 207.348 258.322C204.495 257.918 201.847 258.119 200.112 258.251V256.066L207.049 256.115Z" fill="black"/>
<path opacity="0.1" d="M232.9 259.443C232.9 259.443 228.845 259.635 224.011 259.674C223.874 258.448 223.844 257.437 223.844 257.437C223.844 257.437 226.575 253.758 231.582 257.731C231.982 258.048 232.335 258.418 232.628 258.83C232.707 259.039 232.798 259.244 232.9 259.443V259.443Z" fill="black"/>
<path d="M232.9 259.002C232.9 259.002 215.142 259.834 209.73 258.364C204.318 256.895 198.954 258.168 198.145 257.827C197.337 257.486 197.993 252.146 198.703 250.824C199.412 249.502 203.304 236.131 203.304 236.131L207.049 217.229L210.994 216.176L211.273 216.1L218.148 214.266L223.185 212.919C223.185 212.919 233.201 250.775 232.342 253.566C232.03 254.635 231.98 255.76 232.195 256.851C232.326 257.596 232.563 258.32 232.9 259.002V259.002Z" fill="#1D2366"/>
<path d="M193.995 204.302C193.995 204.302 190.448 207.981 193.133 210.032C195.819 212.082 197.585 210.228 197.585 210.228L193.995 204.302Z" fill="#C7DAF5"/>
<path opacity="0.1" d="M193.995 204.302C193.995 204.302 190.448 207.981 193.133 210.032C195.819 212.082 197.585 210.228 197.585 210.228L193.995 204.302Z" fill="black"/>
<path d="M222.655 180.111C222.655 180.111 222.24 180.494 221.614 181.058C220.722 181.865 219.402 183.045 218.231 184.033C216.61 185.4 215.272 186.403 215.751 185.547C216.229 184.691 216.138 183.199 215.9 181.804C215.882 181.71 215.867 181.617 215.849 181.526C215.652 180.501 215.391 179.489 215.066 178.495C215.066 178.495 217.686 175.217 219.136 173.925C219.675 173.434 220.053 173.233 220.076 173.574C220.101 174.033 220.456 175.046 220.897 176.12C220.909 176.155 220.922 176.186 220.937 176.221C221.231 176.957 221.563 177.712 221.855 178.365C222.301 179.365 222.655 180.111 222.655 180.111Z" fill="#FFB0B1"/>
<path opacity="0.1" d="M220.937 176.221C220.691 177.503 220.094 178.697 219.208 179.679C218.321 180.661 217.179 181.395 215.9 181.804C215.699 180.684 215.42 179.578 215.066 178.495C215.066 178.495 220 172.326 220.076 173.574C220.094 174.047 220.479 175.097 220.937 176.221Z" fill="black"/>
<path opacity="0.1" d="M215.408 183.452L216.047 182.581C216.047 182.581 216.47 185.078 218.026 183.977C219.582 182.876 219.658 192.265 219.658 192.265L217.988 216.434L205.922 215.735L206.264 204.056L207.63 198.169L211.007 189.611L213.017 186.783L215.408 183.452Z" fill="black"/>
<path d="M219.658 192.415L218.137 214.268L217.978 216.584L211.25 216.194L210.997 216.179L205.929 215.884L206.271 204.204L207.637 198.317L211.015 189.758L213.024 186.93L215.416 183.587L216.055 182.719C216.055 182.719 216.478 185.216 218.034 184.114L218.066 184.092C219.587 183.16 219.658 192.415 219.658 192.415Z" fill="#1D2366"/>
<path d="M207.807 196.271C207.807 196.271 207.201 197.497 205.985 197.299C204.769 197.1 204.771 201.714 204.771 201.714C204.771 201.714 203.963 202.45 203.406 201.812C202.848 201.174 201.379 203.33 201.379 203.33L192.171 203.723C192.171 203.723 196.268 205.536 195.465 211.02C195.465 211.02 209.375 210.186 209.831 208.913C210.288 207.64 207.807 196.271 207.807 196.271Z" fill="white"/>
<path opacity="0.03" d="M207.807 196.271C207.807 196.271 207.201 197.497 205.985 197.299C204.769 197.1 204.771 201.714 204.771 201.714C204.771 201.714 203.963 202.45 203.406 201.812C202.848 201.174 201.379 203.33 201.379 203.33L192.171 203.723C192.171 203.723 196.268 205.536 195.465 211.02C195.465 211.02 209.375 210.186 209.831 208.913C210.288 207.64 207.807 196.271 207.807 196.271Z" fill="black"/>
<path d="M181.047 206.605L183.474 208.612L203.456 212.676L200.978 210.228L181.047 206.605Z" fill="white"/>
<path d="M215.446 184.225C215.114 184.715 214.164 187.227 213.371 189.42C212.71 191.247 212.157 192.854 212.157 192.854C212.157 192.854 210.868 200.983 210.209 202.452C209.55 203.922 209.907 209.652 209.907 209.652L207.452 223.803C207.452 223.803 206.34 231.1 204.622 235.459C202.927 239.749 201.039 241.76 200.981 241.824C201.741 240.828 205.884 221.22 205.884 221.22L207.252 196.489C207.252 196.489 207.452 194.139 207.655 192.13C207.858 190.121 211.962 187.379 211.962 187.379L215.92 181.931C216.318 182.446 216.052 183.344 215.446 184.225Z" fill="white"/>
<path d="M205.126 216.007C205.126 216.007 199.298 215.762 196.476 212.48C193.653 209.198 203 211.17 203 211.17L205.43 211.71L205.126 216.007Z" fill="#FFB0B1"/>
<path opacity="0.1" d="M232.342 253.569C232.03 254.638 231.98 255.762 232.195 256.853C225.838 257.29 219.037 255.627 219.037 255.627C217.77 256.755 214.433 258.418 214.433 258.418L212.614 236.587C211.451 233.644 210.995 218.222 210.995 218.222C210.995 218.222 211.098 217.415 211.248 216.206C211.248 216.176 211.248 216.144 211.261 216.115C211.714 212.737 212.614 206.397 213.055 205.541C213.663 204.363 211.185 201.231 211.185 201.231L212.312 191.922L212.449 190.798C214.826 189.771 216.648 186.489 216.648 186.489L218.046 184.117C219.566 183.172 219.645 192.427 219.645 192.427L218.125 214.28L223.162 212.934C223.162 212.934 233.201 250.777 232.342 253.569Z" fill="black"/>
<path d="M238.867 255.077C231.937 258.408 219.341 255.323 219.341 255.323C218.074 256.451 214.737 258.114 214.737 258.114L212.915 236.283C211.755 233.339 211.299 217.918 211.299 217.918C211.299 217.918 212.763 206.411 213.371 205.236C213.549 204.893 213.462 204.383 213.252 203.833C212.218 201.218 211.838 198.403 212.142 195.618L212.629 191.618L212.763 190.497C215.142 189.467 216.964 186.185 216.964 186.185L218.231 184.036L220.562 180.077L221.667 178.203L221.855 178.367L223.286 179.623C223.286 179.623 223.894 180.114 224.806 180.849C226.79 182.468 230.219 185.319 231.987 187.063C233.543 188.598 234.035 194.571 234.177 199.067C234.27 202.028 234.215 204.348 234.215 204.348C232.646 206.848 236.748 226.915 236.748 226.915C237.704 230.793 238.867 255.077 238.867 255.077Z" fill="white"/>
<path opacity="0.03" d="M225.564 186.135C225.564 186.135 220.808 194.9 221.36 198.231C221.913 201.562 223.484 205.332 222.726 206.213C222.466 206.546 222.129 206.817 221.743 207.004C221.357 207.191 220.931 207.288 220.499 207.289C219.739 207.338 217.712 208.71 217.712 208.857C217.712 209.004 215.839 209.004 214.164 209.691C212.489 210.378 210.016 210.768 210.016 210.768C210.016 210.768 205.202 210.621 204.754 211.062C204.305 211.504 203.844 214.145 204.804 216.252C205.765 218.359 206.831 219.932 207.637 220.219C208.443 220.506 213.556 218.848 217.704 218.455C221.852 218.063 226.355 214.881 226.355 214.881C226.355 214.881 231.313 213.164 232.183 210.277C233.052 207.39 231.121 191.522 231.121 191.522C231.121 191.522 229.661 184.126 225.564 186.135Z" fill="black"/>
<path opacity="0.03" d="M224.956 185.4C224.956 185.4 220.2 194.166 220.757 197.495C221.315 200.824 222.881 204.596 222.121 205.479C221.861 205.813 221.525 206.084 221.139 206.271C220.753 206.458 220.328 206.556 219.896 206.556C219.136 206.605 217.109 207.976 217.109 208.123C217.109 208.271 215.236 208.271 213.561 208.955C211.886 209.639 209.413 210.032 209.413 210.032C209.413 210.032 204.599 209.885 204.153 210.326C203.707 210.768 203.241 213.412 204.204 215.517C205.167 217.621 206.231 219.196 207.037 219.483C207.842 219.77 212.956 218.112 217.104 217.722C221.251 217.332 225.754 214.145 225.754 214.145C225.754 214.145 230.71 212.428 231.569 209.544C232.428 206.659 230.508 190.786 230.508 190.786C230.508 190.786 229.053 183.393 224.956 185.4Z" fill="black"/>
<path d="M225.415 185.694C225.415 185.694 220.659 194.461 221.216 197.789C221.773 201.118 223.339 204.89 222.582 205.771C222.322 206.106 221.986 206.378 221.6 206.565C221.213 206.752 220.787 206.85 220.355 206.85C219.594 206.899 217.567 208.271 217.567 208.415C217.567 208.56 215.697 208.563 214.02 209.249C212.342 209.936 209.872 210.326 209.872 210.326C209.872 210.326 205.058 210.179 204.609 210.621C204.161 211.062 203.7 213.706 204.66 215.811C205.62 217.916 206.687 219.49 207.493 219.777C208.298 220.064 213.412 218.406 217.56 218.014C221.708 217.621 226.21 214.44 226.21 214.44C226.21 214.44 231.169 212.723 232.038 209.836C232.907 206.948 230.989 191.081 230.989 191.081C230.989 191.081 229.509 183.697 225.415 185.694Z" fill="white"/>
<path opacity="0.1" d="M225.311 209.208C225.311 209.208 221.51 208.472 222.833 209.698C224.155 210.925 224.148 211.999 225.767 211.95C227.386 211.901 225.311 209.208 225.311 209.208Z" fill="black"/>
<path opacity="0.1" d="M231.734 235.596C231.734 235.596 230.016 236.722 233.302 239.317C236.589 241.912 231.734 235.596 231.734 235.596Z" fill="black"/>
<path opacity="0.1" d="M228.455 244.851C228.455 244.998 227.847 250.247 230.122 251.56C232.398 252.872 228.455 244.851 228.455 244.851Z" fill="black"/>
<path d="M192.328 203.711C190.493 203.772 186.53 204.314 188.585 208.025C190.402 211.31 193.455 209.114 195.173 207.449C194.754 205.896 193.736 204.558 192.328 203.711V203.711Z" fill="#FFB0B1"/>
<path d="M195.196 207.419L195.272 207.343L195.196 207.419Z" fill="#FFB0B1"/>
<path opacity="0.1" d="M224.806 180.999C222.86 182.287 221.229 183.373 220.909 183.599C220.038 184.225 218.376 187.897 217.304 189.771C216.45 191.279 213.675 191.667 212.629 191.762L212.763 190.641C215.142 189.611 216.964 186.329 216.964 186.329L221.667 178.347L223.286 179.773C223.286 179.773 223.894 180.263 224.806 180.999Z" fill="black"/>
<path d="M224.806 180.852C222.86 182.14 221.229 183.226 220.909 183.454C220.038 184.077 218.376 187.749 217.304 189.624C216.45 191.132 213.675 191.52 212.629 191.615L212.763 190.494C215.142 189.464 216.964 186.182 216.964 186.182L221.667 178.2L223.286 179.62C223.286 179.62 223.894 180.106 224.806 180.852Z" fill="#DCE7FF"/>
<path d="M221.061 174.602C221.063 176.074 220.601 177.512 219.739 178.725C218.72 180.159 217.204 181.192 215.466 181.637C213.728 182.082 211.883 181.908 210.266 181.149C208.648 180.389 207.366 179.093 206.651 177.496C205.936 175.9 205.836 174.108 206.369 172.445C206.902 170.783 208.033 169.361 209.556 168.438C211.08 167.514 212.895 167.149 214.673 167.41C216.45 167.671 218.072 168.54 219.244 169.859C220.416 171.179 221.061 172.861 221.061 174.602V174.602Z" fill="#FFB0B1"/>
<path opacity="0.1" d="M234.177 199.07C233.148 198.457 232.31 197.585 231.752 196.548C231.329 195.739 231.047 194.804 230.325 194.23C229.674 193.715 228.805 193.59 227.994 193.359C225.328 192.596 223.094 190.242 223.01 187.553C222.969 186.288 223.377 185.024 223.192 183.771C223.087 183.061 222.796 182.39 222.346 181.821C222.123 181.549 221.878 181.293 221.614 181.058C221.259 180.734 220.887 180.42 220.562 180.077C220.358 179.864 220.179 179.63 220.03 179.378C219.91 179.172 219.812 178.954 219.739 178.728C219.232 177.226 219.693 175.446 219.136 173.927L219.105 173.844C218.895 173.304 218.467 172.765 217.871 172.723C217.276 172.681 216.767 173.159 216.199 173.373C215.011 173.819 213.728 173.059 212.738 172.284C211.747 171.509 210.63 170.623 209.37 170.795C208.537 170.91 207.878 171.46 207.11 171.744C206.937 171.809 206.758 171.859 206.575 171.894C207.225 170.325 208.419 169.025 209.952 168.215C211.484 167.406 213.26 167.139 214.974 167.46C216.688 167.781 218.234 168.669 219.344 169.973C220.455 171.277 221.062 172.914 221.061 174.604C221.062 175.115 221.007 175.624 220.897 176.123C220.909 176.157 220.922 176.189 220.937 176.223C221.231 176.959 221.563 177.715 221.855 178.367L223.286 179.623C223.286 179.623 223.894 180.114 224.806 180.849C226.79 182.468 230.219 185.319 231.987 187.063C233.543 188.603 234.03 194.574 234.177 199.07Z" fill="black"/>
<path d="M207.021 167.263C207.384 166.549 207.564 165.749 207.997 165.072C208.633 164.091 209.743 163.463 210.883 163.083C213.86 162.089 220.152 160.647 222.032 163.083C222.402 163.573 222.708 164.118 223.22 164.457C223.611 164.714 224.082 164.824 224.51 165.018C225.709 165.563 226.474 166.75 226.882 167.962C227.29 169.173 227.411 170.474 227.71 171.722C228.093 173.324 228.764 174.842 229.433 176.351C230.221 178.132 231.057 179.979 232.578 181.237C234.653 182.954 235.112 185.385 237.037 187.269C239.318 189.506 239.244 193.197 238.069 196.129C237.914 196.514 237.739 196.916 237.8 197.326C237.861 197.735 238.175 198.108 238.472 198.434L239.718 199.796C236.769 200.485 233.432 198.994 232.058 196.376C231.635 195.567 231.354 194.635 230.629 194.058C229.981 193.543 229.109 193.421 228.301 193.19C225.635 192.425 223.4 190.067 223.317 187.379C223.276 186.116 223.684 184.853 223.499 183.602C223.396 182.887 223.104 182.211 222.65 181.639C221.953 180.759 220.902 180.167 220.334 179.186C219.374 177.545 220.104 175.414 219.412 173.653C219.199 173.113 218.773 172.573 218.178 172.532C217.583 172.49 217.073 172.968 216.503 173.182C215.317 173.628 214.035 172.87 213.044 172.092C212.054 171.315 210.936 170.432 209.674 170.606C208.841 170.719 208.184 171.268 207.417 171.555C206.849 171.766 205.699 171.955 205.202 171.491C204.153 170.557 206.583 168.136 207.021 167.263Z" fill="#591D4B"/>
<path opacity="0.1" d="M232.763 195.567C232.337 194.757 232.058 193.825 231.334 193.251C230.685 192.736 229.813 192.611 229.003 192.381C226.339 191.618 224.105 189.26 224.018 186.572C223.978 185.309 224.386 184.043 224.203 182.792C224.097 182.083 223.805 181.411 223.355 180.842C222.655 179.961 221.604 179.37 221.039 178.389C220.078 176.751 220.808 174.619 220.114 172.855C219.904 172.318 219.475 171.778 218.882 171.734C218.289 171.69 217.775 172.173 217.207 172.387C216.022 172.833 214.737 172.073 213.749 171.298C212.761 170.523 211.638 169.637 210.379 169.809C209.545 169.924 208.886 170.474 208.121 170.758C207.554 170.969 206.401 171.16 205.904 170.697C204.86 169.716 207.29 167.299 207.726 166.431C208.088 165.715 208.268 164.918 208.704 164.241C208.727 164.204 208.752 164.167 208.777 164.13C208.451 164.392 208.17 164.701 207.944 165.048C207.51 165.725 207.331 166.519 206.968 167.238C206.53 168.106 204.1 170.53 205.146 171.504C205.653 171.97 206.793 171.778 207.361 171.568C208.121 171.281 208.785 170.731 209.619 170.618C210.886 170.444 212 171.33 212.989 172.105C213.977 172.88 215.269 173.64 216.45 173.194C217.017 172.98 217.514 172.5 218.122 172.544C218.73 172.588 219.136 173.125 219.356 173.665C220.048 175.426 219.318 177.558 220.279 179.199C220.846 180.163 221.898 180.766 222.594 181.651C223.048 182.224 223.34 182.9 223.443 183.614C223.628 184.865 223.22 186.128 223.261 187.391C223.344 190.09 225.579 192.437 228.245 193.202C229.048 193.433 229.925 193.556 230.574 194.071C231.301 194.647 231.587 195.579 232.003 196.389C233.376 199.006 236.713 200.497 239.662 199.808L239.075 199.165C236.518 199.202 233.931 197.794 232.763 195.567Z" fill="black"/>
<path opacity="0.1" d="M215.294 184.372C214.962 184.862 214.012 187.374 213.219 189.567C212.477 189.287 211.803 187.504 211.803 187.504L215.761 182.054C216.166 182.593 215.9 183.489 215.294 184.372Z" fill="black"/>
<path d="M192.434 209.284L190.24 202.585C190.214 202.506 190.204 202.424 190.211 202.342C190.218 202.26 190.242 202.18 190.281 202.106C190.32 202.033 190.374 201.968 190.439 201.915C190.504 201.862 190.579 201.822 190.66 201.797V201.797C190.824 201.748 191.001 201.763 191.152 201.839C191.304 201.916 191.419 202.047 191.471 202.205L193.666 208.896L193.448 210.297L192.434 209.284Z" fill="#BE8B87"/>
<path opacity="0.1" d="M190.448 201.996C190.611 201.946 190.789 201.961 190.941 202.037C191.094 202.113 191.209 202.245 191.261 202.403L193.455 209.095L193.291 210.145L193.45 210.307L193.668 208.906L191.461 202.214C191.409 202.057 191.294 201.925 191.142 201.849C190.99 201.773 190.814 201.758 190.65 201.807V201.807C190.513 201.85 190.394 201.937 190.313 202.052C190.356 202.03 190.401 202.011 190.448 201.996V201.996Z" fill="white"/>
<path d="M192.434 209.284L193.666 208.906L193.486 210.054L193.448 210.307L193.088 209.944L192.434 209.284Z" fill="#EFC8C4"/>
<path d="M193.088 209.943C193.109 209.917 193.136 209.896 193.166 209.88C193.184 209.869 193.205 209.863 193.226 209.863C193.247 209.863 193.268 209.869 193.285 209.88C193.303 209.9 193.317 209.922 193.329 209.946C193.345 209.973 193.368 209.996 193.395 210.014C193.422 210.031 193.453 210.042 193.486 210.047L193.448 210.292L193.088 209.943Z" fill="#727A9C"/>
<path d="M190.227 204.964C190.227 204.964 194.628 204.94 193.592 206.752C192.556 208.565 190.937 208.783 190.937 208.783L190.227 204.964Z" fill="#FFB0B1"/>
<path d="M162.854 123.613H162.664C155.103 123.613 148.416 127.486 144.57 133.201C140.723 127.486 134.037 123.613 126.476 123.613H126.286C120.611 123.665 115.188 125.883 111.193 129.785C107.199 133.687 104.956 138.957 104.953 144.45C104.953 151.272 108.039 160.951 114.057 168.916C125.523 184.092 144.57 197.37 144.57 197.37C144.57 197.37 163.617 184.095 175.08 168.916C181.1 160.951 184.184 151.272 184.184 144.45C184.181 138.958 181.939 133.688 177.945 129.786C173.951 125.884 168.528 123.666 162.854 123.613V123.613ZM160.135 170.084C159.274 170.08 158.434 169.825 157.725 169.352C157.017 168.878 156.473 168.208 156.165 167.429H151.644C151.347 167.428 151.057 167.336 150.816 167.167C150.574 166.998 150.394 166.761 150.299 166.488L148.91 162.438L144.517 177.3C144.431 177.586 144.252 177.838 144.006 178.017C143.76 178.196 143.461 178.293 143.153 178.293H143.065C142.744 178.278 142.438 178.157 142.198 177.95C141.958 177.743 141.799 177.462 141.747 177.155L137.219 150.791L133.91 166.392C133.834 166.688 133.658 166.951 133.409 167.14C133.161 167.328 132.854 167.43 132.539 167.429H126.172C125.981 167.437 125.79 167.408 125.611 167.342C125.433 167.277 125.269 167.177 125.131 167.049C124.994 166.921 124.884 166.768 124.809 166.598C124.734 166.427 124.695 166.244 124.695 166.059C124.695 165.875 124.734 165.692 124.809 165.521C124.884 165.351 124.994 165.198 125.131 165.07C125.269 164.942 125.433 164.842 125.611 164.777C125.79 164.711 125.981 164.682 126.172 164.69H131.424L136.112 143.715C136.189 143.404 136.375 143.13 136.638 142.938C136.9 142.746 137.224 142.648 137.553 142.661C137.883 142.674 138.197 142.798 138.442 143.011C138.688 143.224 138.849 143.512 138.899 143.827L143.523 170.721L147.461 157.424C147.543 157.144 147.716 156.897 147.955 156.72C148.194 156.543 148.485 156.446 148.786 156.443H148.814C149.112 156.443 149.402 156.534 149.643 156.703C149.884 156.872 150.064 157.111 150.157 157.385L152.668 164.697H156.109C156.354 163.977 156.799 163.337 157.395 162.847C157.992 162.357 158.717 162.036 159.49 161.92C160.264 161.804 161.055 161.896 161.777 162.188C162.499 162.479 163.124 162.958 163.583 163.572C164.042 164.186 164.317 164.91 164.377 165.666C164.437 166.421 164.281 167.177 163.925 167.852C163.569 168.527 163.027 169.093 162.36 169.489C161.693 169.884 160.925 170.093 160.143 170.093L160.135 170.084Z" fill="#7A96EC"/>
</g>
<line x1="-127.628" y1="682.057" x2="473.372" y2="305.057" stroke="#CCD9FF" stroke-opacity="0.71" stroke-width="40"/>
<line x1="-169.614" y1="451.739" x2="556.386" y2="654.739" stroke="#CCD9FF" stroke-opacity="0.83" stroke-width="40"/>
<path d="M97.99 527.44C97.99 525.36 98.44 523.51 99.34 521.89C100.24 520.25 101.49 518.98 103.09 518.08C104.71 517.16 106.54 516.7 108.58 516.7C111.08 516.7 113.22 517.36 115 518.68C116.78 520 117.97 521.8 118.57 524.08H112.93C112.51 523.2 111.91 522.53 111.13 522.07C110.37 521.61 109.5 521.38 108.52 521.38C106.94 521.38 105.66 521.93 104.68 523.03C103.7 524.13 103.21 525.6 103.21 527.44C103.21 529.28 103.7 530.75 104.68 531.85C105.66 532.95 106.94 533.5 108.52 533.5C109.5 533.5 110.37 533.27 111.13 532.81C111.91 532.35 112.51 531.68 112.93 530.8H118.57C117.97 533.08 116.78 534.88 115 536.2C113.22 537.5 111.08 538.15 108.58 538.15C106.54 538.15 104.71 537.7 103.09 536.8C101.49 535.88 100.24 534.61 99.34 532.99C98.44 531.37 97.99 529.52 97.99 527.44ZM126.752 516.94V529.54C126.752 530.8 127.062 531.77 127.682 532.45C128.302 533.13 129.212 533.47 130.412 533.47C131.612 533.47 132.532 533.13 133.172 532.45C133.812 531.77 134.132 530.8 134.132 529.54V516.94H139.262V529.51C139.262 531.39 138.862 532.98 138.062 534.28C137.262 535.58 136.182 536.56 134.822 537.22C133.482 537.88 131.982 538.21 130.322 538.21C128.662 538.21 127.172 537.89 125.852 537.25C124.552 536.59 123.522 535.61 122.762 534.31C122.002 532.99 121.622 531.39 121.622 529.51V516.94H126.752ZM153.604 538L149.224 530.05H147.994V538H142.864V516.94H151.474C153.134 516.94 154.544 517.23 155.704 517.81C156.884 518.39 157.764 519.19 158.344 520.21C158.924 521.21 159.214 522.33 159.214 523.57C159.214 524.97 158.814 526.22 158.014 527.32C157.234 528.42 156.074 529.2 154.534 529.66L159.394 538H153.604ZM147.994 526.42H151.174C152.114 526.42 152.814 526.19 153.274 525.73C153.754 525.27 153.994 524.62 153.994 523.78C153.994 522.98 153.754 522.35 153.274 521.89C152.814 521.43 152.114 521.2 151.174 521.2H147.994V526.42ZM172.394 538.21C170.414 538.21 168.594 537.75 166.934 536.83C165.294 535.91 163.984 534.63 163.004 532.99C162.044 531.33 161.564 529.47 161.564 527.41C161.564 525.35 162.044 523.5 163.004 521.86C163.984 520.22 165.294 518.94 166.934 518.02C168.594 517.1 170.414 516.64 172.394 516.64C174.374 516.64 176.184 517.1 177.824 518.02C179.484 518.94 180.784 520.22 181.724 521.86C182.684 523.5 183.164 525.35 183.164 527.41C183.164 529.47 182.684 531.33 181.724 532.99C180.764 534.63 179.464 535.91 177.824 536.83C176.184 537.75 174.374 538.21 172.394 538.21ZM172.394 533.53C174.074 533.53 175.414 532.97 176.414 531.85C177.434 530.73 177.944 529.25 177.944 527.41C177.944 525.55 177.434 524.07 176.414 522.97C175.414 521.85 174.074 521.29 172.394 521.29C170.694 521.29 169.334 521.84 168.314 522.94C167.314 524.04 166.814 525.53 166.814 527.41C166.814 529.27 167.314 530.76 168.314 531.88C169.334 532.98 170.694 533.53 172.394 533.53ZM216.226 516.94V538H211.096V525.37L206.386 538H202.246L197.506 525.34V538H192.376V516.94H198.436L204.346 531.52L210.196 516.94H216.226ZM225.045 521.05V525.31H231.915V529.27H225.045V533.89H232.815V538H219.915V516.94H232.815V521.05H225.045ZM244.035 516.94C246.255 516.94 248.195 517.38 249.855 518.26C251.515 519.14 252.795 520.38 253.695 521.98C254.615 523.56 255.075 525.39 255.075 527.47C255.075 529.53 254.615 531.36 253.695 532.96C252.795 534.56 251.505 535.8 249.825 536.68C248.165 537.56 246.235 538 244.035 538H236.145V516.94H244.035ZM243.705 533.56C245.645 533.56 247.155 533.03 248.235 531.97C249.315 530.91 249.855 529.41 249.855 527.47C249.855 525.53 249.315 524.02 248.235 522.94C247.155 521.86 245.645 521.32 243.705 521.32H241.275V533.56H243.705ZM265.562 538.21C264.022 538.21 262.642 537.96 261.422 537.46C260.202 536.96 259.222 536.22 258.482 535.24C257.762 534.26 257.382 533.08 257.342 531.7H262.802C262.882 532.48 263.152 533.08 263.612 533.5C264.072 533.9 264.672 534.1 265.412 534.1C266.172 534.1 266.772 533.93 267.212 533.59C267.652 533.23 267.872 532.74 267.872 532.12C267.872 531.6 267.692 531.17 267.332 530.83C266.992 530.49 266.562 530.21 266.042 529.99C265.542 529.77 264.822 529.52 263.882 529.24C262.522 528.82 261.412 528.4 260.552 527.98C259.692 527.56 258.952 526.94 258.332 526.12C257.712 525.3 257.402 524.23 257.402 522.91C257.402 520.95 258.112 519.42 259.532 518.32C260.952 517.2 262.802 516.64 265.082 516.64C267.402 516.64 269.272 517.2 270.692 518.32C272.112 519.42 272.872 520.96 272.972 522.94H267.422C267.382 522.26 267.132 521.73 266.672 521.35C266.212 520.95 265.622 520.75 264.902 520.75C264.282 520.75 263.782 520.92 263.402 521.26C263.022 521.58 262.832 522.05 262.832 522.67C262.832 523.35 263.152 523.88 263.792 524.26C264.432 524.64 265.432 525.05 266.792 525.49C268.152 525.95 269.252 526.39 270.092 526.81C270.952 527.23 271.692 527.84 272.312 528.64C272.932 529.44 273.242 530.47 273.242 531.73C273.242 532.93 272.932 534.02 272.312 535C271.712 535.98 270.832 536.76 269.672 537.34C268.512 537.92 267.142 538.21 265.562 538.21Z" fill="#0F15A2"/>
<path d="M153.92 758.8C153.73 758.45 153.455 758.185 153.095 758.005C152.745 757.815 152.33 757.72 151.85 757.72C151.02 757.72 150.355 757.995 149.855 758.545C149.355 759.085 149.105 759.81 149.105 760.72C149.105 761.69 149.365 762.45 149.885 763C150.415 763.54 151.14 763.81 152.06 763.81C152.69 763.81 153.22 763.65 153.65 763.33C154.09 763.01 154.41 762.55 154.61 761.95H151.355V760.06H156.935V762.445C156.745 763.085 156.42 763.68 155.96 764.23C155.51 764.78 154.935 765.225 154.235 765.565C153.535 765.905 152.745 766.075 151.865 766.075C150.825 766.075 149.895 765.85 149.075 765.4C148.265 764.94 147.63 764.305 147.17 763.495C146.72 762.685 146.495 761.76 146.495 760.72C146.495 759.68 146.72 758.755 147.17 757.945C147.63 757.125 148.265 756.49 149.075 756.04C149.885 755.58 150.81 755.35 151.85 755.35C153.11 755.35 154.17 755.655 155.03 756.265C155.9 756.875 156.475 757.72 156.755 758.8H153.92ZM160.921 757.525V759.655H164.356V761.635H160.921V763.945H164.806V766H158.356V755.47H164.806V757.525H160.921ZM174.046 755.47V757.525H171.256V766H168.691V757.525H165.901V755.47H174.046ZM182.322 766.105C181.552 766.105 180.862 765.98 180.252 765.73C179.642 765.48 179.152 765.11 178.782 764.62C178.422 764.13 178.232 763.54 178.212 762.85H180.942C180.982 763.24 181.117 763.54 181.347 763.75C181.577 763.95 181.877 764.05 182.247 764.05C182.627 764.05 182.927 763.965 183.147 763.795C183.367 763.615 183.477 763.37 183.477 763.06C183.477 762.8 183.387 762.585 183.207 762.415C183.037 762.245 182.822 762.105 182.562 761.995C182.312 761.885 181.952 761.76 181.482 761.62C180.802 761.41 180.247 761.2 179.817 760.99C179.387 760.78 179.017 760.47 178.707 760.06C178.397 759.65 178.242 759.115 178.242 758.455C178.242 757.475 178.597 756.71 179.307 756.16C180.017 755.6 180.942 755.32 182.082 755.32C183.242 755.32 184.177 755.6 184.887 756.16C185.597 756.71 185.977 757.48 186.027 758.47H183.252C183.232 758.13 183.107 757.865 182.877 757.675C182.647 757.475 182.352 757.375 181.992 757.375C181.682 757.375 181.432 757.46 181.242 757.63C181.052 757.79 180.957 758.025 180.957 758.335C180.957 758.675 181.117 758.94 181.437 759.13C181.757 759.32 182.257 759.525 182.937 759.745C183.617 759.975 184.167 760.195 184.587 760.405C185.017 760.615 185.387 760.92 185.697 761.32C186.007 761.72 186.162 762.235 186.162 762.865C186.162 763.465 186.007 764.01 185.697 764.5C185.397 764.99 184.957 765.38 184.377 765.67C183.797 765.96 183.112 766.105 182.322 766.105ZM195.316 755.47V757.525H192.526V766H189.961V757.525H187.171V755.47H195.316ZM203.158 764.14H199.228L198.598 766H195.913L199.723 755.47H202.693L206.503 766H203.788L203.158 764.14ZM202.498 762.16L201.193 758.305L199.903 762.16H202.498ZM213.032 766L210.842 762.025H210.227V766H207.662V755.47H211.967C212.797 755.47 213.502 755.615 214.082 755.905C214.672 756.195 215.112 756.595 215.402 757.105C215.692 757.605 215.837 758.165 215.837 758.785C215.837 759.485 215.637 760.11 215.237 760.66C214.847 761.21 214.267 761.6 213.497 761.83L215.927 766H213.032ZM210.227 760.21H211.817C212.287 760.21 212.637 760.095 212.867 759.865C213.107 759.635 213.227 759.31 213.227 758.89C213.227 758.49 213.107 758.175 212.867 757.945C212.637 757.715 212.287 757.6 211.817 757.6H210.227V760.21ZM225.023 755.47V757.525H222.233V766H219.668V757.525H216.878V755.47H225.023ZM228.875 757.525V759.655H232.31V761.635H228.875V763.945H232.76V766H226.31V755.47H232.76V757.525H228.875ZM238.37 755.47C239.48 755.47 240.45 755.69 241.28 756.13C242.11 756.57 242.75 757.19 243.2 757.99C243.66 758.78 243.89 759.695 243.89 760.735C243.89 761.765 243.66 762.68 243.2 763.48C242.75 764.28 242.105 764.9 241.265 765.34C240.435 765.78 239.47 766 238.37 766H234.425V755.47H238.37ZM238.205 763.78C239.175 763.78 239.93 763.515 240.47 762.985C241.01 762.455 241.28 761.705 241.28 760.735C241.28 759.765 241.01 759.01 240.47 758.47C239.93 757.93 239.175 757.66 238.205 757.66H236.99V763.78H238.205Z" fill="#DEE6F7"/>
</g>
<defs>
<linearGradient id="paint0_linear_2_9" x1="74.2885" y1="301.07" x2="74.2885" y2="150.131" gradientUnits="userSpaceOnUse">
<stop stop-color="#808080" stop-opacity="0.25"/>
<stop offset="0.54" stop-color="#808080" stop-opacity="0.12"/>
<stop offset="1" stop-color="#808080" stop-opacity="0.1"/>
</linearGradient>
<linearGradient id="paint1_linear_2_9" x1="210.381" y1="299.161" x2="210.381" y2="161.307" gradientUnits="userSpaceOnUse">
<stop stop-color="#808080" stop-opacity="0.25"/>
<stop offset="0.54" stop-color="#808080" stop-opacity="0.12"/>
<stop offset="1" stop-color="#808080" stop-opacity="0.1"/>
</linearGradient>
<clipPath id="clip0_2_9">
<rect width="390" height="844" fill="white"/>
</clipPath>
<clipPath id="clip1_2_9">
<rect width="280" height="192" fill="white" transform="translate(-16 111)"/>
</clipPath>
</defs>
</svg>
